<mxfile host="65bd71144e">
    <diagram id="Lw5kkMuMrnF7vJ6KjVIi" name="Pagina-1">
        <mxGraphModel dx="1829" dy="1326" grid="1" gridSize="10" guides="1" tooltips="1" connect="1" arrows="1" fold="1" page="1" pageScale="1" pageWidth="827" pageHeight="1169" math="0" shadow="0">
            <root>
                <mxCell id="0"/>
                <mxCell id="1" parent="0"/>
                <mxCell id="273" value="" style="ellipse;fillColor=#ffffff;strokeColor=#000000;fontSize=20;" parent="1" vertex="1">
                    <mxGeometry x="426.9952631578948" y="284" width="50.877192982456144" height="50" as="geometry"/>
                </mxCell>
                <mxCell id="274" value="" style="rounded=0;whiteSpace=wrap;html=1;fontSize=20;strokeWidth=0;strokeColor=none;rotation=-90;" parent="1" vertex="1">
                    <mxGeometry x="427.17" y="295.17" width="54.17" height="60" as="geometry"/>
                </mxCell>
                <mxCell id="224" value="" style="endArrow=none;html=1;fontSize=20;entryX=0;entryY=0.5;entryDx=0;entryDy=0;dashed=1;exitX=0.538;exitY=-0.005;exitDx=0;exitDy=0;exitPerimeter=0;" parent="1" edge="1">
                    <mxGeometry width="50" height="50" relative="1" as="geometry">
                        <mxPoint x="622.8739999999998" y="-522.9649999999999" as="sourcePoint"/>
                        <mxPoint x="622.5" y="-650" as="targetPoint"/>
                    </mxGeometry>
                </mxCell>
                <mxCell id="94" value="&lt;b style=&quot;font-size: 20px&quot;&gt;EV Driver&lt;br&gt;Web App&lt;/b&gt;" style="html=1;dropTarget=0;fontSize=20;fillColor=#dae8fc;strokeColor=#6c8ebf;" parent="1" vertex="1">
                    <mxGeometry x="-810" y="-310" width="180" height="90" as="geometry"/>
                </mxCell>
                <mxCell id="95" value="" style="shape=module;jettyWidth=8;jettyHeight=4;fontSize=20;" parent="94" vertex="1">
                    <mxGeometry x="1" width="20" height="20" relative="1" as="geometry">
                        <mxPoint x="-27" y="7" as="offset"/>
                    </mxGeometry>
                </mxCell>
                <mxCell id="137" value="" style="group;dashed=1;fontSize=20;" parent="1" vertex="1" connectable="0">
                    <mxGeometry x="-520" y="-440" width="290" height="100" as="geometry"/>
                </mxCell>
                <mxCell id="90" value="" style="ellipse;fillColor=#ffffff;strokeColor=#000000;fontSize=20;" parent="137" vertex="1">
                    <mxGeometry x="122.10526315789474" y="5" width="50.877192982456144" height="50" as="geometry"/>
                </mxCell>
                <mxCell id="91" value="" style="rounded=0;whiteSpace=wrap;html=1;fontSize=20;strokeWidth=0;strokeColor=none;" parent="137" vertex="1">
                    <mxGeometry x="147.54385964912282" width="30.526315789473685" height="60" as="geometry"/>
                </mxCell>
                <mxCell id="89" value="" style="ellipse;fillColor=#ffffff;strokeColor=#000000;fontSize=20;shadow=0;sketch=0;" parent="137" vertex="1">
                    <mxGeometry x="127.19298245614036" y="10" width="40.70175438596492" height="40" as="geometry"/>
                </mxCell>
                <mxCell id="96" value="" style="endArrow=none;html=1;fontSize=20;strokeWidth=1;endSize=6;" parent="137" edge="1">
                    <mxGeometry width="50" height="50" relative="1" as="geometry">
                        <mxPoint x="167.89473684210526" y="29.83000000000004" as="sourcePoint"/>
                        <mxPoint x="280" y="30" as="targetPoint"/>
                    </mxGeometry>
                </mxCell>
                <mxCell id="98" value="Account Manager Interface" style="text;html=1;strokeColor=none;fillColor=none;align=center;verticalAlign=middle;whiteSpace=wrap;rounded=0;fontSize=18;" parent="137" vertex="1">
                    <mxGeometry x="50.69999999999999" y="70" width="193.68" height="30" as="geometry"/>
                </mxCell>
                <mxCell id="144" value="" style="group;fontSize=20;" parent="1" vertex="1" connectable="0">
                    <mxGeometry x="-520" y="-321" width="290" height="100" as="geometry"/>
                </mxCell>
                <mxCell id="145" value="" style="ellipse;fillColor=#ffffff;strokeColor=#000000;fontSize=20;" parent="144" vertex="1">
                    <mxGeometry x="122.10526315789474" y="5" width="50.877192982456144" height="50" as="geometry"/>
                </mxCell>
                <mxCell id="146" value="" style="rounded=0;whiteSpace=wrap;html=1;fontSize=20;strokeWidth=0;strokeColor=none;" parent="144" vertex="1">
                    <mxGeometry x="147.54385964912282" width="30.526315789473685" height="60" as="geometry"/>
                </mxCell>
                <mxCell id="147" value="" style="ellipse;fillColor=#ffffff;strokeColor=#000000;fontSize=20;" parent="144" vertex="1">
                    <mxGeometry x="127.19298245614036" y="10" width="40.70175438596492" height="40" as="geometry"/>
                </mxCell>
                <mxCell id="148" value="" style="endArrow=none;html=1;fontSize=20;strokeWidth=1;endSize=6;" parent="144" edge="1">
                    <mxGeometry width="50" height="50" relative="1" as="geometry">
                        <mxPoint x="10" y="30" as="sourcePoint"/>
                        <mxPoint x="122.10526315789474" y="30" as="targetPoint"/>
                    </mxGeometry>
                </mxCell>
                <mxCell id="149" value="" style="endArrow=none;html=1;fontSize=20;strokeWidth=1;endSize=6;" parent="144" edge="1">
                    <mxGeometry width="50" height="50" relative="1" as="geometry">
                        <mxPoint x="167.89473684210526" y="29.83000000000004" as="sourcePoint"/>
                        <mxPoint x="280" y="30" as="targetPoint"/>
                    </mxGeometry>
                </mxCell>
                <mxCell id="150" value="CP Search&amp;nbsp;&lt;br style=&quot;font-size: 18px;&quot;&gt;Interface" style="text;html=1;strokeColor=none;fillColor=none;align=center;verticalAlign=middle;whiteSpace=wrap;rounded=0;fontSize=18;" parent="144" vertex="1">
                    <mxGeometry x="76.31578947368422" y="70" width="142.4561403508772" height="30" as="geometry"/>
                </mxCell>
                <mxCell id="185" value="" style="group;rotation=90;fontSize=20;" parent="1" connectable="0" vertex="1">
                    <mxGeometry x="-817.5" y="-450" width="55" height="60" as="geometry"/>
                </mxCell>
                <mxCell id="182" value="" style="ellipse;fillColor=#ffffff;strokeColor=#000000;fontSize=20;rotation=-90;" parent="185" vertex="1">
                    <mxGeometry x="3" y="8" width="50" height="50" as="geometry"/>
                </mxCell>
                <mxCell id="183" value="" style="rounded=0;whiteSpace=wrap;html=1;fontSize=20;strokeWidth=0;rotation=-90;strokeColor=none;" parent="185" vertex="1">
                    <mxGeometry x="13" y="-12" width="30" height="60" as="geometry"/>
                </mxCell>
                <mxCell id="184" value="" style="ellipse;fillColor=#f8cecc;strokeColor=#b85450;fontSize=20;rotation=-90;" parent="185" vertex="1">
                    <mxGeometry x="8" y="13" width="40" height="40" as="geometry"/>
                </mxCell>
                <mxCell id="192" value="" style="endArrow=none;html=1;fontSize=20;entryX=0;entryY=0.5;entryDx=0;entryDy=0;exitX=0.114;exitY=0;exitDx=0;exitDy=0;exitPerimeter=0;" parent="1" source="94" target="182" edge="1">
                    <mxGeometry width="50" height="50" relative="1" as="geometry">
                        <mxPoint x="-709" y="-310" as="sourcePoint"/>
                        <mxPoint x="-560" y="-390" as="targetPoint"/>
                    </mxGeometry>
                </mxCell>
                <mxCell id="193" value="" style="endArrow=none;html=1;fontSize=20;entryX=0;entryY=0.5;entryDx=0;entryDy=0;exitX=0.836;exitY=0;exitDx=0;exitDy=0;exitPerimeter=0;" parent="1" source="94" target="188" edge="1">
                    <mxGeometry width="50" height="50" relative="1" as="geometry">
                        <mxPoint x="-559" y="-310" as="sourcePoint"/>
                        <mxPoint x="-629.5" y="-490" as="targetPoint"/>
                    </mxGeometry>
                </mxCell>
                <mxCell id="93" value="" style="endArrow=none;html=1;fontSize=20;strokeWidth=1;endSize=6;edgeStyle=orthogonalEdgeStyle;rounded=0;entryX=0;entryY=0.5;entryDx=0;entryDy=0;exitX=1;exitY=0.444;exitDx=0;exitDy=0;exitPerimeter=0;" parent="1" source="94" target="90" edge="1">
                    <mxGeometry width="50" height="50" relative="1" as="geometry">
                        <mxPoint x="-504.21" y="-270" as="sourcePoint"/>
                        <mxPoint x="-400" y="-420" as="targetPoint"/>
                        <Array as="points">
                            <mxPoint x="-510" y="-270"/>
                            <mxPoint x="-510" y="-410"/>
                        </Array>
                    </mxGeometry>
                </mxCell>
                <mxCell id="213" value="" style="group;rotation=90;rounded=0;fontSize=20;" parent="1" connectable="0" vertex="1">
                    <mxGeometry x="301.5" y="-710" width="67.5" height="60" as="geometry"/>
                </mxCell>
                <mxCell id="214" value="" style="ellipse;fillColor=#ffffff;strokeColor=#000000;fontSize=20;rotation=-90;" parent="213" vertex="1">
                    <mxGeometry x="3" y="8" width="50" height="50" as="geometry"/>
                </mxCell>
                <mxCell id="215" value="" style="rounded=0;whiteSpace=wrap;html=1;fontSize=20;strokeWidth=0;rotation=-90;strokeColor=none;" parent="213" vertex="1">
                    <mxGeometry x="13" y="-12" width="30" height="60" as="geometry"/>
                </mxCell>
                <mxCell id="216" value="" style="ellipse;fillColor=#f8cecc;strokeColor=#b85450;fontSize=20;rotation=-90;" parent="213" vertex="1">
                    <mxGeometry x="8" y="13" width="40" height="40" as="geometry"/>
                </mxCell>
                <mxCell id="218" value="" style="endArrow=none;html=1;fontSize=20;entryX=0;entryY=0.5;entryDx=0;entryDy=0;dashed=1;exitX=0.446;exitY=-0.012;exitDx=0;exitDy=0;exitPerimeter=0;edgeStyle=orthogonalEdgeStyle;" parent="1" source="328" target="214" edge="1">
                    <mxGeometry width="50" height="50" relative="1" as="geometry">
                        <mxPoint x="321" y="-527" as="sourcePoint"/>
                        <mxPoint x="250.5" y="-707" as="targetPoint"/>
                    </mxGeometry>
                </mxCell>
                <mxCell id="219" value="" style="group;rotation=90;rounded=0;fontSize=20;" parent="1" connectable="0" vertex="1">
                    <mxGeometry x="595" y="-710" width="55" height="60" as="geometry"/>
                </mxCell>
                <mxCell id="220" value="" style="ellipse;fillColor=#ffffff;strokeColor=#000000;fontSize=20;rotation=-90;" parent="219" vertex="1">
                    <mxGeometry x="3" y="8" width="50" height="50" as="geometry"/>
                </mxCell>
                <mxCell id="221" value="" style="rounded=0;whiteSpace=wrap;html=1;fontSize=20;strokeWidth=0;rotation=-90;strokeColor=none;" parent="219" vertex="1">
                    <mxGeometry x="13" y="-12" width="30" height="60" as="geometry"/>
                </mxCell>
                <mxCell id="222" value="" style="ellipse;fillColor=#f8cecc;strokeColor=#b85450;fontSize=20;rotation=-90;" parent="219" vertex="1">
                    <mxGeometry x="8" y="13" width="40" height="40" as="geometry"/>
                </mxCell>
                <mxCell id="223" value="Push Notification&lt;br style=&quot;font-size: 18px;&quot;&gt;Service" style="text;html=1;strokeColor=none;fillColor=none;align=center;verticalAlign=middle;whiteSpace=wrap;rounded=0;fontSize=18;" parent="1" vertex="1">
                    <mxGeometry x="552.5" y="-745" width="140" height="40" as="geometry"/>
                </mxCell>
                <mxCell id="245" value="" style="group;fontStyle=0;fontSize=20;" parent="1" vertex="1" connectable="0">
                    <mxGeometry x="-520" y="-193" width="290" height="90" as="geometry"/>
                </mxCell>
                <mxCell id="246" value="" style="ellipse;fillColor=#ffffff;strokeColor=#000000;fontSize=20;fontStyle=4" parent="245" vertex="1">
                    <mxGeometry x="122.10526315789474" y="5" width="50.877192982456144" height="50" as="geometry"/>
                </mxCell>
                <mxCell id="247" value="" style="rounded=0;whiteSpace=wrap;html=1;fontSize=20;strokeWidth=0;strokeColor=none;fontStyle=4" parent="245" vertex="1">
                    <mxGeometry x="147.54385964912282" width="30.526315789473685" height="60" as="geometry"/>
                </mxCell>
                <mxCell id="248" value="" style="ellipse;fillColor=#ffffff;strokeColor=#000000;fontSize=20;fontStyle=4" parent="245" vertex="1">
                    <mxGeometry x="126.19298245614036" y="10" width="40.70175438596492" height="40" as="geometry"/>
                </mxCell>
                <mxCell id="249" value="" style="endArrow=none;html=1;fontSize=20;strokeWidth=1;endSize=6;rounded=0;fontStyle=4;edgeStyle=orthogonalEdgeStyle;" parent="245" edge="1">
                    <mxGeometry width="50" height="50" relative="1" as="geometry">
                        <mxPoint x="10" y="-77" as="sourcePoint"/>
                        <mxPoint x="122.10526315789474" y="30" as="targetPoint"/>
                        <Array as="points">
                            <mxPoint x="10" y="-50"/>
                            <mxPoint x="10" y="30"/>
                        </Array>
                    </mxGeometry>
                </mxCell>
                <mxCell id="250" value="" style="endArrow=none;html=1;fontSize=20;strokeWidth=1;endSize=6;fontStyle=4;entryX=0;entryY=0.5;entryDx=0;entryDy=0;" parent="245" edge="1">
                    <mxGeometry width="50" height="50" relative="1" as="geometry">
                        <mxPoint x="167" y="31" as="sourcePoint"/>
                        <mxPoint x="265" y="30.5" as="targetPoint"/>
                    </mxGeometry>
                </mxCell>
                <mxCell id="251" value="Car Manager&lt;br style=&quot;font-size: 18px;&quot;&gt;Interface" style="text;html=1;strokeColor=none;fillColor=none;align=center;verticalAlign=middle;whiteSpace=wrap;rounded=0;fontSize=18;fontStyle=0" parent="245" vertex="1">
                    <mxGeometry x="76.31578947368422" y="70" width="142.4561403508772" height="30" as="geometry"/>
                </mxCell>
                <mxCell id="252" value="" style="group;fontSize=20;" parent="1" connectable="0" vertex="1">
                    <mxGeometry x="520" y="225" width="220" height="130" as="geometry"/>
                </mxCell>
                <mxCell id="253" value="" style="shape=folder;fontStyle=1;spacingTop=10;tabWidth=100;tabHeight=26;tabPosition=left;html=1;direction=east;flipV=0;flipH=0;labelPosition=center;verticalLabelPosition=middle;align=center;verticalAlign=middle;horizontal=1;labelBackgroundColor=none;fontSize=20;" parent="252" vertex="1">
                    <mxGeometry y="1" width="219.99999999999991" height="130" as="geometry"/>
                </mxCell>
                <mxCell id="254" value="eMall DB" style="text;strokeColor=none;fillColor=none;html=1;fontSize=20;fontStyle=1;verticalAlign=middle;align=center;" parent="252" vertex="1">
                    <mxGeometry y="3" width="100" height="20" as="geometry"/>
                </mxCell>
                <mxCell id="266" value="&lt;b style=&quot;font-size: 20px;&quot;&gt;DBMS&lt;/b&gt;" style="html=1;dropTarget=0;fontSize=20;fontStyle=0;" parent="252" vertex="1">
                    <mxGeometry x="53.975860805860805" y="61.714015208837765" width="116.04395604395604" height="41.1328125" as="geometry"/>
                </mxCell>
                <mxCell id="267" value="" style="shape=module;jettyWidth=8;jettyHeight=4;fontSize=20;fillColor=#f8cecc;strokeColor=#b85450;" parent="266" vertex="1">
                    <mxGeometry x="1" width="20" height="20" relative="1" as="geometry">
                        <mxPoint x="-27" y="7" as="offset"/>
                    </mxGeometry>
                </mxCell>
                <mxCell id="Wueq8j8OSEsdgoLi7fvw-907" value="" style="whiteSpace=wrap;html=1;aspect=fixed;rounded=0;fontSize=20;fillColor=#FFFFFF;" parent="252" vertex="1">
                    <mxGeometry x="-10" y="72.85" width="23" height="23" as="geometry"/>
                </mxCell>
                <mxCell id="Wueq8j8OSEsdgoLi7fvw-910" value="" style="endArrow=none;html=1;fontSize=20;strokeWidth=1;endSize=6;" parent="252" edge="1">
                    <mxGeometry width="50" height="50" relative="1" as="geometry">
                        <mxPoint x="13.00473684210101" y="84.01000000000022" as="sourcePoint"/>
                        <mxPoint x="54.22000000000003" y="84.01000000000022" as="targetPoint"/>
                    </mxGeometry>
                </mxCell>
                <mxCell id="259" value="" style="endArrow=none;html=1;rounded=0;fontSize=20;endSize=6;strokeWidth=1;exitX=1;exitY=0.5;exitDx=0;exitDy=0;edgeStyle=orthogonalEdgeStyle;" parent="1" source="203" edge="1">
                    <mxGeometry width="50" height="50" relative="1" as="geometry">
                        <mxPoint x="460" y="-150" as="sourcePoint"/>
                        <mxPoint x="270" y="-260" as="targetPoint"/>
                    </mxGeometry>
                </mxCell>
                <mxCell id="275" value="" style="ellipse;fillColor=#ffffff;strokeColor=#000000;fontSize=20;rotation=-180;" parent="1" vertex="1">
                    <mxGeometry x="432.08298245614037" y="289" width="40.70175438596492" height="40" as="geometry"/>
                </mxCell>
                <mxCell id="276" value="" style="endArrow=none;html=1;fontSize=20;strokeWidth=1;endSize=6;entryX=0;entryY=0.5;entryDx=0;entryDy=0;exitX=0;exitY=0.5;exitDx=0;exitDy=0;" parent="1" source="275" target="Wueq8j8OSEsdgoLi7fvw-907" edge="1">
                    <mxGeometry width="50" height="50" relative="1" as="geometry">
                        <mxPoint x="480" y="269" as="sourcePoint"/>
                        <mxPoint x="987.8900000000001" y="-136" as="targetPoint"/>
                    </mxGeometry>
                </mxCell>
                <mxCell id="277" value="DBMS&lt;br style=&quot;font-size: 18px;&quot;&gt;API" style="text;html=1;strokeColor=none;fillColor=none;align=center;verticalAlign=middle;whiteSpace=wrap;rounded=0;fontSize=18;" parent="1" vertex="1">
                    <mxGeometry x="360" y="293.65" width="65.79" height="30" as="geometry"/>
                </mxCell>
                <mxCell id="326" value="" style="endArrow=none;html=1;rounded=0;fontSize=20;endSize=6;strokeWidth=1;exitX=1;exitY=0.75;exitDx=0;exitDy=0;" parent="1" source="203" edge="1">
                    <mxGeometry width="50" height="50" relative="1" as="geometry">
                        <mxPoint x="210" y="-170" as="sourcePoint"/>
                        <mxPoint x="200" y="-172" as="targetPoint"/>
                    </mxGeometry>
                </mxCell>
                <mxCell id="330" value="" style="group;fontStyle=4;fontSize=20;" parent="1" connectable="0" vertex="1">
                    <mxGeometry x="-79" y="-730" width="60" height="198.44999999999982" as="geometry"/>
                </mxCell>
                <mxCell id="225" value="" style="group;rotation=90;rounded=0;fontSize=20;" parent="330" connectable="0" vertex="1">
                    <mxGeometry x="4.5" y="22" width="55" height="60" as="geometry"/>
                </mxCell>
                <mxCell id="226" value="" style="ellipse;fillColor=#ffffff;strokeColor=#000000;fontSize=20;rotation=-90;" parent="225" vertex="1">
                    <mxGeometry x="3" y="8" width="50" height="50" as="geometry"/>
                </mxCell>
                <mxCell id="227" value="" style="rounded=0;whiteSpace=wrap;html=1;fontSize=20;strokeWidth=0;rotation=-90;strokeColor=none;" parent="225" vertex="1">
                    <mxGeometry x="13" y="-12" width="30" height="60" as="geometry"/>
                </mxCell>
                <mxCell id="228" value="" style="ellipse;fillColor=#f8cecc;strokeColor=#b85450;fontSize=20;rotation=-90;" parent="225" vertex="1">
                    <mxGeometry x="8" y="13" width="40" height="40" as="geometry"/>
                </mxCell>
                <mxCell id="229" value="SMS Service" style="text;html=1;strokeColor=none;fillColor=none;align=center;verticalAlign=middle;whiteSpace=wrap;rounded=0;fontSize=18;" parent="330" vertex="1">
                    <mxGeometry x="2" y="-8" width="60" height="30" as="geometry"/>
                </mxCell>
                <mxCell id="331" value="" style="group;fontSize=20;" parent="1" vertex="1" connectable="0">
                    <mxGeometry x="390" y="-740" width="60" height="198.44999999999982" as="geometry"/>
                </mxCell>
                <mxCell id="195" value="" style="group;rotation=90;rounded=0;fontSize=20;" parent="331" connectable="0" vertex="1">
                    <mxGeometry x="7.5" y="30" width="55" height="60" as="geometry"/>
                </mxCell>
                <mxCell id="196" value="" style="ellipse;fillColor=#ffffff;strokeColor=#000000;fontSize=20;rotation=-90;" parent="195" vertex="1">
                    <mxGeometry x="3" y="8" width="50" height="50" as="geometry"/>
                </mxCell>
                <mxCell id="197" value="" style="rounded=0;whiteSpace=wrap;html=1;fontSize=20;strokeWidth=0;rotation=-90;strokeColor=none;" parent="195" vertex="1">
                    <mxGeometry x="13" y="-12" width="30" height="60" as="geometry"/>
                </mxCell>
                <mxCell id="198" value="" style="ellipse;fillColor=#f8cecc;strokeColor=#b85450;fontSize=20;rotation=-90;" parent="195" vertex="1">
                    <mxGeometry x="8" y="13" width="40" height="40" as="geometry"/>
                </mxCell>
                <mxCell id="199" value="Calendar&lt;br style=&quot;font-size: 18px;&quot;&gt;API" style="text;html=1;strokeColor=none;fillColor=none;align=center;verticalAlign=middle;whiteSpace=wrap;rounded=0;fontSize=18;" parent="331" vertex="1">
                    <mxGeometry x="5" width="60" height="30" as="geometry"/>
                </mxCell>
                <mxCell id="230" value="" style="endArrow=none;html=1;fontSize=20;dashed=1;entryX=0;entryY=0.5;entryDx=0;entryDy=0;exitX=0.458;exitY=-0.004;exitDx=0;exitDy=0;exitPerimeter=0;" parent="1" source="324" target="226" edge="1">
                    <mxGeometry width="50" height="50" relative="1" as="geometry">
                        <mxPoint x="-49" y="-459" as="sourcePoint"/>
                        <mxPoint x="-50" y="-649" as="targetPoint"/>
                    </mxGeometry>
                </mxCell>
                <mxCell id="332" value="" style="group;fontSize=20;" parent="1" vertex="1" connectable="0">
                    <mxGeometry x="-430" y="200" width="60" height="198" as="geometry"/>
                </mxCell>
                <mxCell id="207" value="" style="group;rotation=0;rounded=0;fontSize=20;" parent="332" connectable="0" vertex="1">
                    <mxGeometry x="8.5" y="30" width="55" height="60" as="geometry"/>
                </mxCell>
                <mxCell id="208" value="" style="ellipse;fillColor=#ffffff;strokeColor=#000000;fontSize=20;rotation=-180;" parent="207" vertex="1">
                    <mxGeometry x="6" y="5" width="50" height="50" as="geometry"/>
                </mxCell>
                <mxCell id="209" value="" style="rounded=0;whiteSpace=wrap;html=1;fontSize=20;strokeWidth=0;rotation=-180;strokeColor=none;" parent="207" vertex="1">
                    <mxGeometry x="1" width="30" height="60" as="geometry"/>
                </mxCell>
                <mxCell id="210" value="" style="ellipse;fillColor=#f8cecc;strokeColor=#b85450;fontSize=20;rotation=-180;" parent="207" vertex="1">
                    <mxGeometry x="11" y="10" width="40" height="40" as="geometry"/>
                </mxCell>
                <mxCell id="200" value="" style="endArrow=none;html=1;fontSize=20;exitX=0.5;exitY=0;exitDx=0;exitDy=0;entryX=0;entryY=0.5;entryDx=0;entryDy=0;dashed=1;" parent="1" source="327" target="196" edge="1">
                    <mxGeometry width="50" height="50" relative="1" as="geometry">
                        <mxPoint x="417.15904878048786" y="-523.1826484751205" as="sourcePoint"/>
                        <mxPoint x="342.5" y="-722" as="targetPoint"/>
                    </mxGeometry>
                </mxCell>
                <mxCell id="212" value="" style="endArrow=none;html=1;fontSize=20;entryX=0;entryY=0.5;entryDx=0;entryDy=0;dashed=1;edgeStyle=orthogonalEdgeStyle;exitX=0;exitY=0.5;exitDx=0;exitDy=0;rounded=0;" parent="1" source="329" target="208" edge="1">
                    <mxGeometry width="50" height="50" relative="1" as="geometry">
                        <mxPoint x="-240" y="120" as="sourcePoint"/>
                        <mxPoint x="130.5" y="-722" as="targetPoint"/>
                    </mxGeometry>
                </mxCell>
                <mxCell id="339" value="" style="endArrow=none;dashed=1;html=1;rounded=0;fontSize=20;endSize=6;strokeWidth=1;entryX=0.5;entryY=1;entryDx=0;entryDy=0;" parent="1" target="328" edge="1">
                    <mxGeometry width="50" height="50" relative="1" as="geometry">
                        <mxPoint x="322" y="-450" as="sourcePoint"/>
                        <mxPoint x="280" y="-400" as="targetPoint"/>
                    </mxGeometry>
                </mxCell>
                <mxCell id="340" value="" style="endArrow=none;dashed=1;html=1;rounded=0;fontSize=20;endSize=6;strokeWidth=1;entryX=0.5;entryY=1;entryDx=0;entryDy=0;" parent="1" target="315" edge="1">
                    <mxGeometry width="50" height="50" relative="1" as="geometry">
                        <mxPoint x="540" y="-460" as="sourcePoint"/>
                        <mxPoint x="590" y="-430" as="targetPoint"/>
                    </mxGeometry>
                </mxCell>
                <mxCell id="217" value="EV &lt;br style=&quot;font-size: 18px;&quot;&gt;Service" style="text;html=1;strokeColor=none;fillColor=none;align=center;verticalAlign=middle;whiteSpace=wrap;rounded=0;fontSize=18;" parent="1" vertex="1">
                    <mxGeometry x="289" y="-740" width="80" height="30" as="geometry"/>
                </mxCell>
                <mxCell id="191" value="GPS&lt;br style=&quot;font-size: 18px;&quot;&gt;Service" style="text;html=1;strokeColor=none;fillColor=none;align=center;verticalAlign=middle;whiteSpace=wrap;rounded=0;fontSize=18;" parent="1" vertex="1">
                    <mxGeometry x="-690" y="-484" width="60" height="30" as="geometry"/>
                </mxCell>
                <mxCell id="187" value="" style="group;rotation=90;rounded=0;fontSize=20;" parent="1" connectable="0" vertex="1">
                    <mxGeometry x="-687.5" y="-450" width="55" height="60" as="geometry"/>
                </mxCell>
                <mxCell id="188" value="" style="ellipse;fillColor=#ffffff;strokeColor=#000000;fontSize=20;rotation=-90;" parent="187" vertex="1">
                    <mxGeometry x="3" y="8" width="50" height="50" as="geometry"/>
                </mxCell>
                <mxCell id="189" value="" style="rounded=0;whiteSpace=wrap;html=1;fontSize=20;strokeWidth=0;rotation=-90;strokeColor=none;" parent="187" vertex="1">
                    <mxGeometry x="13" y="-12" width="30" height="60" as="geometry"/>
                </mxCell>
                <mxCell id="190" value="" style="ellipse;fillColor=#f8cecc;strokeColor=#b85450;fontSize=20;rotation=-90;" parent="187" vertex="1">
                    <mxGeometry x="8" y="13" width="40" height="40" as="geometry"/>
                </mxCell>
                <mxCell id="5" value="" style="group;fontSize=20;" parent="1" connectable="0" vertex="1">
                    <mxGeometry x="-230" y="-550" width="1020" height="750.0026966292135" as="geometry"/>
                </mxCell>
                <mxCell id="280" value="" style="rounded=1;whiteSpace=wrap;html=1;fontSize=20;strokeWidth=1;strokeColor=#FFFFFF;" parent="5" vertex="1">
                    <mxGeometry x="355.6910569105691" y="489.3258426966292" width="10.670731707317072" height="21.508828250401283" as="geometry"/>
                </mxCell>
                <mxCell id="30" value="&lt;b style=&quot;font-size: 20px;&quot;&gt;Account Manager&lt;/b&gt;" style="html=1;dropTarget=0;fontSize=20;" parent="5" vertex="1">
                    <mxGeometry x="81.30081300813008" y="96.78972712680577" width="182.92682926829266" height="96.78972712680577" as="geometry"/>
                </mxCell>
                <mxCell id="31" value="" style="shape=module;jettyWidth=8;jettyHeight=4;fontSize=20;fillColor=#d5e8d4;strokeColor=#82b366;" parent="30" vertex="1">
                    <mxGeometry x="1" width="20" height="20" relative="1" as="geometry">
                        <mxPoint x="-27" y="7" as="offset"/>
                    </mxGeometry>
                </mxCell>
                <mxCell id="izaFajcsEE2UDhvrSL2r-1" value="" style="shape=folder;fontStyle=1;spacingTop=10;tabWidth=100;tabHeight=40;tabPosition=left;html=1;direction=east;flipV=0;flipH=0;labelPosition=center;verticalLabelPosition=middle;align=center;verticalAlign=middle;horizontal=1;labelBackgroundColor=none;fontSize=20;" parent="5" vertex="1">
                    <mxGeometry x="-13.21" width="1023.21" height="750" as="geometry"/>
                </mxCell>
                <mxCell id="3" value="eMSP" style="text;html=1;strokeColor=none;fillColor=none;align=center;verticalAlign=middle;whiteSpace=wrap;rounded=0;fontSize=20;fontStyle=1" parent="5" vertex="1">
                    <mxGeometry x="-9.144160058572206" y="-3.2297203683365745" width="94.78580362726704" height="51.79099433978203" as="geometry"/>
                </mxCell>
                <mxCell id="203" value="&lt;b style=&quot;font-size: 20px;&quot;&gt;Car Manager&lt;/b&gt;" style="html=1;dropTarget=0;fontSize=20;" parent="5" vertex="1">
                    <mxGeometry x="81.30081300813008" y="333.3868378812199" width="182.92682926829266" height="96.78972712680577" as="geometry"/>
                </mxCell>
                <mxCell id="204" value="" style="shape=module;jettyWidth=8;jettyHeight=4;fontSize=20;fillColor=#d5e8d4;strokeColor=#82b366;" parent="203" vertex="1">
                    <mxGeometry x="1" width="20" height="20" relative="1" as="geometry">
                        <mxPoint x="-27" y="7" as="offset"/>
                    </mxGeometry>
                </mxCell>
                <mxCell id="205" value="&lt;b style=&quot;font-size: 20px;&quot;&gt;Reservation &lt;br style=&quot;font-size: 20px;&quot;&gt;Manager&lt;/b&gt;" style="html=1;dropTarget=0;fontSize=20;" parent="5" vertex="1">
                    <mxGeometry x="81.30081300813008" y="451.685393258427" width="182.92682926829266" height="96.78972712680577" as="geometry"/>
                </mxCell>
                <mxCell id="206" value="" style="shape=module;jettyWidth=8;jettyHeight=4;fontSize=20;fillColor=#d5e8d4;strokeColor=#82b366;" parent="205" vertex="1">
                    <mxGeometry x="1" width="20" height="20" relative="1" as="geometry">
                        <mxPoint x="-27" y="7" as="offset"/>
                    </mxGeometry>
                </mxCell>
                <mxCell id="260" value="" style="endArrow=none;html=1;rounded=0;fontSize=20;endSize=6;strokeWidth=1;exitX=1;exitY=0.75;exitDx=0;exitDy=0;entryX=0;entryY=0.5;entryDx=0;entryDy=0;" parent="5" source="205" target="667" edge="1">
                    <mxGeometry width="50" height="50" relative="1" as="geometry">
                        <mxPoint x="680.8943089430894" y="118.29855537720707" as="sourcePoint"/>
                        <mxPoint x="731.7073170731707" y="64.52648475120385" as="targetPoint"/>
                        <Array as="points">
                            <mxPoint x="436.9918699186992" y="523.7399678972713"/>
                            <mxPoint x="436.9918699186992" y="178.52327447833065"/>
                        </Array>
                    </mxGeometry>
                </mxCell>
                <mxCell id="271" value="" style="endArrow=none;html=1;rounded=0;fontSize=20;endSize=6;strokeWidth=1;exitX=1;exitY=0.5;exitDx=0;exitDy=0;strokeColor=none;" parent="5" source="205" edge="1">
                    <mxGeometry width="50" height="50" relative="1" as="geometry">
                        <mxPoint x="264.2276422764227" y="500.0802568218301" as="sourcePoint"/>
                        <mxPoint x="386.17886178861784" y="523.6119883049945" as="targetPoint"/>
                        <Array as="points"/>
                    </mxGeometry>
                </mxCell>
                <mxCell id="22" value="&lt;b style=&quot;font-size: 20px;&quot;&gt;Query Manager&lt;/b&gt;" style="html=1;dropTarget=0;fontSize=20;fontStyle=0;" parent="5" vertex="1">
                    <mxGeometry x="802.8455284552845" y="279.6147672552167" width="164.6341463414634" height="96.78972712680577" as="geometry"/>
                </mxCell>
                <mxCell id="23" value="" style="shape=module;jettyWidth=8;jettyHeight=4;fontSize=20;fillColor=#dae8fc;strokeColor=#6c8ebf;" parent="22" vertex="1">
                    <mxGeometry x="1" width="20" height="20" relative="1" as="geometry">
                        <mxPoint x="-27" y="7" as="offset"/>
                    </mxGeometry>
                </mxCell>
                <mxCell id="201" value="&lt;b style=&quot;font-size: 20px;&quot;&gt;CP Search&amp;nbsp;&lt;/b&gt;" style="html=1;dropTarget=0;fontSize=20;" parent="5" vertex="1">
                    <mxGeometry x="81.30081300813008" y="215.08828250401285" width="182.92682926829266" height="96.78972712680577" as="geometry"/>
                </mxCell>
                <mxCell id="202" value="" style="shape=module;jettyWidth=8;jettyHeight=4;fontSize=20;fillColor=#d5e8d4;strokeColor=#82b366;" parent="201" vertex="1">
                    <mxGeometry x="1" width="20" height="20" relative="1" as="geometry">
                        <mxPoint x="-27" y="7" as="offset"/>
                    </mxGeometry>
                </mxCell>
                <mxCell id="301" value="&lt;b style=&quot;font-size: 20px;&quot;&gt;Notification &lt;br style=&quot;font-size: 20px;&quot;&gt;Manager&lt;/b&gt;" style="html=1;dropTarget=0;fontSize=20;" parent="5" vertex="1">
                    <mxGeometry x="756.0975609756097" y="96.78972712680577" width="182.92682926829266" height="96.78972712680577" as="geometry"/>
                </mxCell>
                <mxCell id="302" value="" style="shape=module;jettyWidth=8;jettyHeight=4;fontSize=20;fillColor=#d5e8d4;strokeColor=#82b366;" parent="301" vertex="1">
                    <mxGeometry x="1" width="20" height="20" relative="1" as="geometry">
                        <mxPoint x="-27" y="7" as="offset"/>
                    </mxGeometry>
                </mxCell>
                <mxCell id="306" value="&lt;b style=&quot;font-size: 20px;&quot;&gt;Account Manager&lt;/b&gt;" style="html=1;dropTarget=0;fontSize=20;" parent="5" vertex="1">
                    <mxGeometry x="81.30081300813008" y="96.78972712680577" width="182.92682926829266" height="96.78972712680577" as="geometry"/>
                </mxCell>
                <mxCell id="307" value="" style="shape=module;jettyWidth=8;jettyHeight=4;fontSize=20;fillColor=#d5e8d4;strokeColor=#82b366;" parent="306" vertex="1">
                    <mxGeometry x="1" width="20" height="20" relative="1" as="geometry">
                        <mxPoint x="-27" y="7" as="offset"/>
                    </mxGeometry>
                </mxCell>
                <mxCell id="315" value="" style="whiteSpace=wrap;html=1;aspect=fixed;rounded=0;fontSize=20;" parent="5" vertex="1">
                    <mxGeometry x="840.9552845528455" y="27.047351524879613" width="22.999999999999996" height="22.999999999999996" as="geometry"/>
                </mxCell>
                <mxCell id="324" value="" style="whiteSpace=wrap;html=1;aspect=fixed;rounded=0;fontSize=20;fillColor=#FFFFFF;" parent="5" vertex="1">
                    <mxGeometry x="172.7642276422764" y="27.047351524879613" width="22.999999999999996" height="22.999999999999996" as="geometry"/>
                </mxCell>
                <mxCell id="328" value="" style="whiteSpace=wrap;html=1;aspect=fixed;rounded=0;fontSize=20;fillColor=#FFFFFF;" parent="5" vertex="1">
                    <mxGeometry x="548.780487804878" y="27.04735152487959" width="22.999999999999996" height="22.999999999999996" as="geometry"/>
                </mxCell>
                <mxCell id="327" value="" style="whiteSpace=wrap;html=1;aspect=fixed;rounded=0;fontSize=20;fillColor=#FFFFFF;" parent="5" vertex="1">
                    <mxGeometry x="642.8980487804877" y="25.557351524879593" width="22.999999999999996" height="22.999999999999996" as="geometry"/>
                </mxCell>
                <mxCell id="335" value="" style="endArrow=none;dashed=1;html=1;rounded=0;fontSize=20;endSize=6;strokeWidth=1;exitX=0.5;exitY=1;exitDx=0;exitDy=0;entryX=0.562;entryY=0.002;entryDx=0;entryDy=0;entryPerimeter=0;" parent="5" source="324" target="306" edge="1">
                    <mxGeometry width="50" height="50" relative="1" as="geometry">
                        <mxPoint x="365.8536585365853" y="139.80738362760835" as="sourcePoint"/>
                        <mxPoint x="184.95934959349592" y="96.78972712680577" as="targetPoint"/>
                    </mxGeometry>
                </mxCell>
                <mxCell id="336" value="&lt;b style=&quot;font-size: 20px;&quot;&gt;Suggestion &lt;br style=&quot;font-size: 20px;&quot;&gt;Manager&lt;/b&gt;" style="html=1;dropTarget=0;fontSize=20;" parent="5" vertex="1">
                    <mxGeometry x="571.1382113821138" y="397.91332263242373" width="182.92682926829266" height="96.78972712680577" as="geometry"/>
                </mxCell>
                <mxCell id="337" value="" style="shape=module;jettyWidth=8;jettyHeight=4;fontSize=20;fillColor=#d5e8d4;strokeColor=#82b366;" parent="336" vertex="1">
                    <mxGeometry x="1" width="20" height="20" relative="1" as="geometry">
                        <mxPoint x="-27" y="7" as="offset"/>
                    </mxGeometry>
                </mxCell>
                <mxCell id="341" value="" style="endArrow=none;html=1;rounded=0;fontSize=20;endSize=6;strokeWidth=1;exitX=0.75;exitY=0;exitDx=0;exitDy=0;edgeStyle=orthogonalEdgeStyle;" parent="5" edge="1">
                    <mxGeometry width="50" height="50" relative="1" as="geometry">
                        <mxPoint x="709.3495934959349" y="397.91332263242373" as="sourcePoint"/>
                        <mxPoint x="854.6747967479674" y="234.446227929374" as="targetPoint"/>
                        <Array as="points">
                            <mxPoint x="681.910569105691" y="397.91332263242373"/>
                            <mxPoint x="681.910569105691" y="268.86035313001605"/>
                            <mxPoint x="854.6747967479674" y="268.86035313001605"/>
                            <mxPoint x="854.6747967479674" y="234.446227929374"/>
                        </Array>
                    </mxGeometry>
                </mxCell>
                <mxCell id="344" value="" style="group;fontSize=20;" parent="5" connectable="0" vertex="1">
                    <mxGeometry x="674.7967479674796" y="317.25521669341896" width="31.504065040650406" height="21.508828250401283" as="geometry"/>
                </mxCell>
                <mxCell id="342" value="" style="ellipse;whiteSpace=wrap;html=1;aspect=fixed;rounded=1;fontSize=20;strokeColor=#000000;strokeWidth=1;" parent="344" vertex="1">
                    <mxGeometry x="-3.0487804878048776" width="19.999999999999996" height="19.999999999999996" as="geometry"/>
                </mxCell>
                <mxCell id="343" value="" style="rounded=0;whiteSpace=wrap;html=1;fontSize=20;strokeColor=#FFFFFF;strokeWidth=1;" parent="344" vertex="1">
                    <mxGeometry x="-4.0650406504065035" width="10.16260162601626" height="21.508828250401283" as="geometry"/>
                </mxCell>
                <mxCell id="255" value="" style="endArrow=none;html=1;rounded=0;fontSize=20;endSize=6;strokeWidth=1;exitX=1;exitY=0.5;exitDx=0;exitDy=0;" parent="5" source="306" edge="1">
                    <mxGeometry width="50" height="50" relative="1" as="geometry">
                        <mxPoint x="264.2276422764227" y="139.80738362760835" as="sourcePoint"/>
                        <mxPoint x="721.5447154471544" y="328.0096308186196" as="targetPoint"/>
                        <Array as="points">
                            <mxPoint x="508.130081300813" y="145.18459069020867"/>
                            <mxPoint x="508.130081300813" y="328.0096308186196"/>
                        </Array>
                    </mxGeometry>
                </mxCell>
                <mxCell id="360" value="" style="endArrow=none;html=1;rounded=0;fontSize=20;endSize=6;strokeWidth=1;exitX=0.5;exitY=0;exitDx=0;exitDy=0;edgeStyle=orthogonalEdgeStyle;" parent="5" source="334" edge="1">
                    <mxGeometry width="50" height="50" relative="1" as="geometry">
                        <mxPoint x="689.4613821138214" y="591.4927768860354" as="sourcePoint"/>
                        <mxPoint x="884.1463414634146" y="376.40449438202245" as="targetPoint"/>
                        <Array as="points">
                            <mxPoint x="680" y="602"/>
                            <mxPoint x="680" y="559"/>
                            <mxPoint x="884" y="559"/>
                        </Array>
                    </mxGeometry>
                </mxCell>
                <mxCell id="492" value="" style="whiteSpace=wrap;html=1;aspect=fixed;rounded=0;fontSize=20;fillColor=#FFFFFF;" parent="5" vertex="1">
                    <mxGeometry x="-24.39024390243902" y="129.0529695024077" width="22.999999999999996" height="22.999999999999996" as="geometry"/>
                </mxCell>
                <mxCell id="494" value="" style="whiteSpace=wrap;html=1;aspect=fixed;rounded=0;fontSize=20;fillColor=#FFFFFF;" parent="5" vertex="1">
                    <mxGeometry x="-25.40650406504065" y="247.35152487961477" width="22.999999999999996" height="22.999999999999996" as="geometry"/>
                </mxCell>
                <mxCell id="495" value="" style="whiteSpace=wrap;html=1;aspect=fixed;rounded=0;fontSize=20;fillColor=#FFFFFF;" parent="5" vertex="1">
                    <mxGeometry x="-25.40650406504065" y="374.2536115569823" width="22.999999999999996" height="22.999999999999996" as="geometry"/>
                </mxCell>
                <mxCell id="502" value="" style="endArrow=none;html=1;rounded=0;sketch=0;fontSize=20;endSize=6;strokeWidth=1;exitX=1;exitY=0.5;exitDx=0;exitDy=0;entryX=0.001;entryY=0.461;entryDx=0;entryDy=0;entryPerimeter=0;edgeStyle=elbowEdgeStyle;" parent="5" source="492" target="306" edge="1">
                    <mxGeometry width="50" height="50" relative="1" as="geometry">
                        <mxPoint x="223.5772357723577" y="483.9486356340289" as="sourcePoint"/>
                        <mxPoint x="274.390243902439" y="430.1765650080257" as="targetPoint"/>
                        <Array as="points">
                            <mxPoint x="81.30081300813008" y="150.56179775280899"/>
                            <mxPoint x="71.13821138211381" y="150.56179775280899"/>
                            <mxPoint x="60.97560975609756" y="150.56179775280899"/>
                        </Array>
                    </mxGeometry>
                </mxCell>
                <mxCell id="503" value="" style="endArrow=none;html=1;rounded=0;sketch=0;fontSize=20;endSize=6;strokeWidth=1;exitX=1;exitY=0.5;exitDx=0;exitDy=0;entryX=0.001;entryY=0.461;entryDx=0;entryDy=0;entryPerimeter=0;edgeStyle=elbowEdgeStyle;" parent="5" source="494" edge="1">
                    <mxGeometry width="50" height="50" relative="1" as="geometry">
                        <mxPoint x="13.028455284552837" y="259.51476725521667" as="sourcePoint"/>
                        <mxPoint x="81.30081300812991" y="259.5040128410915" as="targetPoint"/>
                        <Array as="points">
                            <mxPoint x="81.11788617886178" y="268.65601926163725"/>
                            <mxPoint x="70.95528455284551" y="268.65601926163725"/>
                            <mxPoint x="60.79268292682926" y="268.65601926163725"/>
                        </Array>
                    </mxGeometry>
                </mxCell>
                <mxCell id="186" value="Maps API" style="text;html=1;strokeColor=none;fillColor=none;align=center;verticalAlign=middle;whiteSpace=wrap;rounded=0;fontSize=18;" parent="5" vertex="1">
                    <mxGeometry x="-599.5934959349593" y="68.26324237560192" width="60.97560975609756" height="32.263242375601926" as="geometry"/>
                </mxCell>
                <mxCell id="675" value="AuthInt" style="text;html=1;strokeColor=none;fillColor=none;align=center;verticalAlign=middle;whiteSpace=wrap;rounded=0;fontSize=15;" parent="5" vertex="1">
                    <mxGeometry x="300.55894308943084" y="202.18298555377206" width="120.9349593495935" height="32.263242375601926" as="geometry"/>
                </mxCell>
                <mxCell id="686" value="" style="endArrow=none;html=1;rounded=0;sketch=0;fontSize=20;endSize=6;strokeWidth=1;entryX=0.001;entryY=0.461;entryDx=0;entryDy=0;entryPerimeter=0;edgeStyle=elbowEdgeStyle;startArrow=none;" parent="5" source="682" edge="1">
                    <mxGeometry width="50" height="50" relative="1" as="geometry">
                        <mxPoint x="-183.94308943089382" y="-87.63772070626004" as="sourcePoint"/>
                        <mxPoint x="42.703252032520304" y="502.46773675762415" as="targetPoint"/>
                        <Array as="points"/>
                    </mxGeometry>
                </mxCell>
                <mxCell id="682" value="" style="rounded=0;whiteSpace=wrap;html=1;fontSize=20;strokeColor=#FFFFFF;strokeWidth=1;" parent="5" vertex="1">
                    <mxGeometry x="42.682926829268276" y="492.5521669341894" width="10.16260162601626" height="21.508828250401283" as="geometry"/>
                </mxCell>
                <mxCell id="687" value="" style="group;fontSize=20;" parent="5" connectable="0" vertex="1">
                    <mxGeometry x="41.666666666666664" y="378.01765650080256" width="21.341463414634145" height="21.508828250401283" as="geometry"/>
                </mxCell>
                <mxCell id="689" value="" style="rounded=0;whiteSpace=wrap;html=1;fontSize=20;strokeColor=#FFFFFF;strokeWidth=1;" parent="687" vertex="1">
                    <mxGeometry x="1.0162601626016259" width="10.16260162601626" height="21.508828250401283" as="geometry"/>
                </mxCell>
                <mxCell id="345" value="" style="group;fontSize=20;" parent="5" connectable="0" vertex="1">
                    <mxGeometry x="425.8130081300813" y="371.02728731942216" width="21.341463414634145" height="21.508828250401283" as="geometry"/>
                </mxCell>
                <mxCell id="308" value="" style="ellipse;whiteSpace=wrap;html=1;aspect=fixed;rounded=1;fontSize=20;strokeColor=#000000;strokeWidth=1;" parent="345" vertex="1">
                    <mxGeometry x="1.0162601626016259" width="19.999999999999996" height="19.999999999999996" as="geometry"/>
                </mxCell>
                <mxCell id="309" value="" style="rounded=0;whiteSpace=wrap;html=1;fontSize=20;strokeColor=#FFFFFF;strokeWidth=1;" parent="345" vertex="1">
                    <mxGeometry width="10.16260162601626" height="21.508828250401283" as="geometry"/>
                </mxCell>
                <mxCell id="346" value="" style="group;fontSize=20;" parent="5" connectable="0" vertex="1">
                    <mxGeometry x="425.8130081300813" y="258.1059390048154" width="21.341463414634145" height="21.508828250401283" as="geometry"/>
                </mxCell>
                <mxCell id="316" value="" style="ellipse;whiteSpace=wrap;html=1;aspect=fixed;rounded=1;fontSize=20;strokeColor=#000000;strokeWidth=1;" parent="346" vertex="1">
                    <mxGeometry x="1.0162601626016259" width="19.999999999999996" height="19.999999999999996" as="geometry"/>
                </mxCell>
                <mxCell id="317" value="" style="rounded=0;whiteSpace=wrap;html=1;fontSize=20;strokeColor=#FFFFFF;strokeWidth=1;" parent="346" vertex="1">
                    <mxGeometry width="10.16260162601626" height="21.508828250401283" as="geometry"/>
                </mxCell>
                <mxCell id="256" value="" style="endArrow=none;html=1;rounded=0;fontSize=20;endSize=6;strokeWidth=1;" parent="5" edge="1">
                    <mxGeometry width="50" height="50" relative="1" as="geometry">
                        <mxPoint x="264.2276422764227" y="267.78491171749596" as="sourcePoint"/>
                        <mxPoint x="508.130081300813" y="267.78491171749596" as="targetPoint"/>
                    </mxGeometry>
                </mxCell>
                <mxCell id="666" value="" style="group" parent="5" connectable="0" vertex="1">
                    <mxGeometry x="264.2276422764227" y="153.78812199036918" width="112.80487804878048" height="48.394863563402886" as="geometry"/>
                </mxCell>
                <mxCell id="667" value="" style="ellipse;fillColor=#ffffff;strokeColor=#000000;fontSize=20;rotation=-180;" parent="666" vertex="1">
                    <mxGeometry x="73.99432562957732" y="4.032905296950242" width="38.810552419203155" height="40.32905296950242" as="geometry"/>
                </mxCell>
                <mxCell id="668" value="" style="rounded=0;whiteSpace=wrap;html=1;fontSize=20;strokeWidth=0;strokeColor=none;rotation=-180;" parent="666" vertex="1">
                    <mxGeometry x="70.18018513320736" width="23.286331451521892" height="48.39486356340289" as="geometry"/>
                </mxCell>
                <mxCell id="669" value="" style="ellipse;fillColor=#ffffff;strokeColor=#000000;fontSize=20;shadow=0;sketch=0;rotation=-180;" parent="666" vertex="1">
                    <mxGeometry x="77.80846612594728" y="8.065810593900483" width="31.04844193536253" height="32.26324237560193" as="geometry"/>
                </mxCell>
                <mxCell id="670" value="" style="endArrow=none;html=1;fontSize=20;strokeWidth=1;endSize=6;entryX=0.003;entryY=0.427;entryDx=0;entryDy=0;entryPerimeter=0;" parent="666" edge="1">
                    <mxGeometry width="50" height="50" relative="1" as="geometry">
                        <mxPoint x="77.80846612594728" y="24.197431781701447" as="sourcePoint"/>
                        <mxPoint y="24.197431781701447" as="targetPoint"/>
                    </mxGeometry>
                </mxCell>
                <mxCell id="751" value="" style="endArrow=none;html=1;rounded=0;entryX=1;entryY=0.5;entryDx=0;entryDy=0;edgeStyle=orthogonalEdgeStyle;startArrow=none;" parent="5" target="205" edge="1">
                    <mxGeometry width="50" height="50" relative="1" as="geometry">
                        <mxPoint x="436.9918699186992" y="500.08025682182983" as="sourcePoint"/>
                        <mxPoint x="508.130081300813" y="569.9839486356341" as="targetPoint"/>
                        <Array as="points">
                            <mxPoint x="355.69105691056916" y="500"/>
                            <mxPoint x="355.69105691056916" y="500"/>
                        </Array>
                    </mxGeometry>
                </mxCell>
                <mxCell id="753" value="" style="ellipse;whiteSpace=wrap;html=1;aspect=fixed;" parent="5" vertex="1">
                    <mxGeometry x="426.8292682926829" y="489.3258426966292" width="19.999999999999996" height="19.999999999999996" as="geometry"/>
                </mxCell>
                <mxCell id="755" value="" style="rounded=0;whiteSpace=wrap;html=1;strokeColor=#FFFFFF;" parent="5" vertex="1">
                    <mxGeometry x="425.8130081300813" y="489.3258426966292" width="10.16260162601626" height="21.508828250401283" as="geometry"/>
                </mxCell>
                <mxCell id="787" value="" style="group" parent="5" connectable="0" vertex="1">
                    <mxGeometry x="425.8130081300813" y="452.760834670947" width="21.341463414634145" height="21.508828250401283" as="geometry"/>
                </mxCell>
                <mxCell id="785" value="" style="ellipse;whiteSpace=wrap;html=1;aspect=fixed;" parent="787" vertex="1">
                    <mxGeometry x="1.0162601626016259" width="19.999999999999996" height="19.999999999999996" as="geometry"/>
                </mxCell>
                <mxCell id="786" value="" style="rounded=0;whiteSpace=wrap;html=1;strokeColor=#FFFFFF;" parent="787" vertex="1">
                    <mxGeometry width="10.16260162601626" height="21.508828250401283" as="geometry"/>
                </mxCell>
                <mxCell id="796" value="" style="endArrow=none;html=1;rounded=0;exitX=1.001;exitY=0.12;exitDx=0;exitDy=0;exitPerimeter=0;entryX=0.002;entryY=0.577;entryDx=0;entryDy=0;edgeStyle=orthogonalEdgeStyle;entryPerimeter=0;" parent="5" edge="1">
                    <mxGeometry width="50" height="50" relative="1" as="geometry">
                        <mxPoint x="264.41056910569114" y="463.30016051364373" as="sourcePoint"/>
                        <mxPoint x="690.9661140671107" y="182.07041939002636" as="targetPoint"/>
                        <Array as="points">
                            <mxPoint x="538.6178861788618" y="463"/>
                            <mxPoint x="538.6178861788618" y="182"/>
                        </Array>
                    </mxGeometry>
                </mxCell>
                <mxCell id="798" value="" style="group" parent="5" connectable="0" vertex="1">
                    <mxGeometry x="527.4390243902438" y="317.25521669341896" width="21.341463414634145" height="21.508828250401283" as="geometry"/>
                </mxCell>
                <mxCell id="799" value="" style="ellipse;whiteSpace=wrap;html=1;aspect=fixed;" parent="798" vertex="1">
                    <mxGeometry x="1.0162601626016259" width="19.999999999999996" height="19.999999999999996" as="geometry"/>
                </mxCell>
                <mxCell id="800" value="" style="rounded=0;whiteSpace=wrap;html=1;strokeColor=#FFFFFF;" parent="798" vertex="1">
                    <mxGeometry width="10.16260162601626" height="21.508828250401283" as="geometry"/>
                </mxCell>
                <mxCell id="754" value="" style="endArrow=none;html=1;rounded=0;edgeStyle=orthogonalEdgeStyle;" parent="5" edge="1">
                    <mxGeometry width="50" height="50" relative="1" as="geometry">
                        <mxPoint x="721.5447154471544" y="328.0096308186196" as="sourcePoint"/>
                        <mxPoint x="416.6666666666667" y="500" as="targetPoint"/>
                        <Array as="points">
                            <mxPoint x="508.13008130081306" y="328"/>
                            <mxPoint x="508.13008130081306" y="500"/>
                        </Array>
                    </mxGeometry>
                </mxCell>
                <mxCell id="803" value="" style="ellipse;whiteSpace=wrap;html=1;aspect=fixed;" parent="5" vertex="1">
                    <mxGeometry x="497.9674796747967" y="452.760834670947" width="19.999999999999996" height="19.999999999999996" as="geometry"/>
                </mxCell>
                <mxCell id="804" value="" style="rounded=0;whiteSpace=wrap;html=1;strokeColor=#FFFFFF;" parent="5" vertex="1">
                    <mxGeometry x="496.9512195121951" y="452.760834670947" width="10.16260162601626" height="21.508828250401283" as="geometry"/>
                </mxCell>
                <mxCell id="808" value="" style="whiteSpace=wrap;html=1;aspect=fixed;rounded=0;fontSize=20;fillColor=#FFFFFF;" parent="5" vertex="1">
                    <mxGeometry x="-23.373983739837396" y="492.5521669341894" width="22.999999999999996" height="22.999999999999996" as="geometry"/>
                </mxCell>
                <mxCell id="Wueq8j8OSEsdgoLi7fvw-815" value="" style="endArrow=none;html=1;rounded=0;exitX=1;exitY=0.25;exitDx=0;exitDy=0;edgeStyle=orthogonalEdgeStyle;" parent="5" edge="1">
                    <mxGeometry width="50" height="50" relative="1" as="geometry">
                        <mxPoint x="264.2276422764227" y="420.0042696629214" as="sourcePoint"/>
                        <mxPoint x="436.9918699186992" y="420.5419903691814" as="targetPoint"/>
                        <Array as="points">
                            <mxPoint x="350.60975609756093" y="420.5419903691814"/>
                            <mxPoint x="436.9918699186992" y="420.5419903691814"/>
                        </Array>
                    </mxGeometry>
                </mxCell>
                <mxCell id="Wueq8j8OSEsdgoLi7fvw-816" value="" style="endArrow=none;dashed=1;html=1;rounded=0;fontSize=20;endSize=6;strokeWidth=1;exitX=0.5;exitY=1;exitDx=0;exitDy=0;" parent="5" edge="1">
                    <mxGeometry x="-0.5306" y="246" width="50" height="50" relative="1" as="geometry">
                        <mxPoint x="853.7499999999995" y="52.85794542536125" as="sourcePoint"/>
                        <mxPoint x="853.7059269556426" y="97.86516853932584" as="targetPoint"/>
                        <mxPoint as="offset"/>
                    </mxGeometry>
                </mxCell>
                <mxCell id="Wueq8j8OSEsdgoLi7fvw-817" value="" style="endArrow=none;dashed=1;html=1;rounded=0;fontSize=20;endSize=6;strokeWidth=1;edgeStyle=orthogonalEdgeStyle;exitX=0.271;exitY=-0.001;exitDx=0;exitDy=0;exitPerimeter=0;" parent="5" source="336" target="328" edge="1">
                    <mxGeometry width="50" height="50" relative="1" as="geometry">
                        <mxPoint x="620" y="395" as="sourcePoint"/>
                        <mxPoint x="560" y="47" as="targetPoint"/>
                        <Array as="points">
                            <mxPoint x="621" y="358"/>
                            <mxPoint x="560" y="358"/>
                        </Array>
                    </mxGeometry>
                </mxCell>
                <mxCell id="Wueq8j8OSEsdgoLi7fvw-821" value="" style="group;dashed=1;fontSize=20;" parent="5" connectable="0" vertex="1">
                    <mxGeometry x="591.4634146341463" y="283.37881219903693" width="294.7154471544715" height="107.54414125200643" as="geometry"/>
                </mxCell>
                <mxCell id="Wueq8j8OSEsdgoLi7fvw-828" value="" style="group" parent="Wueq8j8OSEsdgoLi7fvw-821" connectable="0" vertex="1">
                    <mxGeometry x="51.52439024390242" y="23.65971107544141" width="196.82926829268288" height="68.82825040128411" as="geometry"/>
                </mxCell>
                <mxCell id="Wueq8j8OSEsdgoLi7fvw-827" value="" style="group" parent="Wueq8j8OSEsdgoLi7fvw-828" connectable="0" vertex="1">
                    <mxGeometry x="79.16666666666666" width="115.9146341463414" height="68.10770465489567" as="geometry"/>
                </mxCell>
                <mxCell id="Wueq8j8OSEsdgoLi7fvw-822" value="" style="ellipse;fillColor=#ffffff;strokeColor=#000000;fontSize=20;" parent="Wueq8j8OSEsdgoLi7fvw-827" vertex="1">
                    <mxGeometry y="3.5848047084002137" width="35.00554323725055" height="35.84804708400213" as="geometry"/>
                </mxCell>
                <mxCell id="Wueq8j8OSEsdgoLi7fvw-823" value="" style="rounded=0;whiteSpace=wrap;html=1;fontSize=20;strokeWidth=0;strokeColor=none;" parent="Wueq8j8OSEsdgoLi7fvw-827" vertex="1">
                    <mxGeometry x="17.50277161862528" width="21.003325942350333" height="43.017656500802566" as="geometry"/>
                </mxCell>
                <mxCell id="Wueq8j8OSEsdgoLi7fvw-824" value="" style="ellipse;fillColor=#ffffff;strokeColor=#000000;fontSize=20;shadow=0;sketch=0;" parent="Wueq8j8OSEsdgoLi7fvw-827" vertex="1">
                    <mxGeometry x="3.5005543237250563" y="7.169609416800427" width="28.00443458980044" height="28.67843766720171" as="geometry"/>
                </mxCell>
                <mxCell id="Wueq8j8OSEsdgoLi7fvw-826" value="&lt;font style=&quot;font-size: 13px;&quot;&gt;QueryManagerInt&lt;/font&gt;" style="text;html=1;strokeColor=none;fillColor=none;align=center;verticalAlign=middle;whiteSpace=wrap;rounded=0;fontSize=13;" parent="Wueq8j8OSEsdgoLi7fvw-827" vertex="1">
                    <mxGeometry x="-78.88211382113822" y="32.618138041733545" width="196.82926829268288" height="32.263242375601926" as="geometry"/>
                </mxCell>
                <mxCell id="Wueq8j8OSEsdgoLi7fvw-830" value="" style="endArrow=none;html=1;rounded=0;fontSize=14;exitX=1;exitY=0.5;exitDx=0;exitDy=0;entryX=-0.002;entryY=0.509;entryDx=0;entryDy=0;entryPerimeter=0;" parent="5" source="Wueq8j8OSEsdgoLi7fvw-824" target="22" edge="1">
                    <mxGeometry width="50" height="50" relative="1" as="geometry">
                        <mxPoint x="762.1951219512194" y="376.40449438202245" as="sourcePoint"/>
                        <mxPoint x="813.0081300813008" y="322.63242375601925" as="targetPoint"/>
                    </mxGeometry>
                </mxCell>
                <mxCell id="Wueq8j8OSEsdgoLi7fvw-880" value="&lt;font style=&quot;font-size: 15px;&quot;&gt;SendSuggestionInt&lt;/font&gt;" style="text;html=1;strokeColor=none;fillColor=none;align=center;verticalAlign=middle;whiteSpace=wrap;rounded=0;fontSize=15;" parent="5" vertex="1">
                    <mxGeometry x="887.1764227642276" y="206.41272873194222" width="95.20325203252033" height="32.263242375601926" as="geometry"/>
                </mxCell>
                <mxCell id="Wueq8j8OSEsdgoLi7fvw-866" value="" style="group;rotation=0;" parent="5" connectable="0" vertex="1">
                    <mxGeometry x="691.0569105691056" y="162.3916532905297" width="38.50609756097562" height="43.017656500802566" as="geometry"/>
                </mxCell>
                <mxCell id="Wueq8j8OSEsdgoLi7fvw-867" value="" style="ellipse;fillColor=#ffffff;strokeColor=#000000;fontSize=20;rotation=14;" parent="Wueq8j8OSEsdgoLi7fvw-866" vertex="1">
                    <mxGeometry y="3.226324237560193" width="35.005543237250556" height="35.84804708400213" as="geometry"/>
                </mxCell>
                <mxCell id="Wueq8j8OSEsdgoLi7fvw-868" value="" style="rounded=0;whiteSpace=wrap;html=1;fontSize=20;strokeWidth=0;strokeColor=none;rotation=0;" parent="Wueq8j8OSEsdgoLi7fvw-866" vertex="1">
                    <mxGeometry x="17.27642276422764" y="2.1508828250401284" width="21.003325942350337" height="43.017656500802566" as="geometry"/>
                </mxCell>
                <mxCell id="Wueq8j8OSEsdgoLi7fvw-869" value="" style="ellipse;fillColor=#ffffff;strokeColor=#000000;fontSize=20;shadow=0;sketch=0;rotation=14;" parent="Wueq8j8OSEsdgoLi7fvw-866" vertex="1">
                    <mxGeometry x="3.048780487804877" y="6.452648475120386" width="28.004434589800443" height="28.67843766720171" as="geometry"/>
                </mxCell>
                <mxCell id="Wueq8j8OSEsdgoLi7fvw-882" value="" style="endArrow=none;html=1;rounded=0;fontSize=13;entryX=0.002;entryY=0.876;entryDx=0;entryDy=0;entryPerimeter=0;exitX=0.981;exitY=0.323;exitDx=0;exitDy=0;exitPerimeter=0;" parent="5" source="Wueq8j8OSEsdgoLi7fvw-869" target="301" edge="1">
                    <mxGeometry width="50" height="50" relative="1" as="geometry">
                        <mxPoint x="670.7317073170731" y="236.59711075441413" as="sourcePoint"/>
                        <mxPoint x="721.5447154471544" y="182.8250401284109" as="targetPoint"/>
                    </mxGeometry>
                </mxCell>
                <mxCell id="Wueq8j8OSEsdgoLi7fvw-883" value="" style="group;rotation=-90;" parent="5" connectable="0" vertex="1">
                    <mxGeometry x="841.9715447154471" y="204.4736757624398" width="26.717479674796746" height="29.843499197431782" as="geometry"/>
                </mxCell>
                <mxCell id="Wueq8j8OSEsdgoLi7fvw-884" value="" style="ellipse;fillColor=#ffffff;strokeColor=#000000;fontSize=20;rotation=-76;" parent="Wueq8j8OSEsdgoLi7fvw-883" vertex="1">
                    <mxGeometry x="1.0162601626016259" y="4.301765650080257" width="24.288617886178855" height="24.86958266452648" as="geometry"/>
                </mxCell>
                <mxCell id="Wueq8j8OSEsdgoLi7fvw-885" value="" style="rounded=0;whiteSpace=wrap;html=1;fontSize=20;strokeWidth=0;strokeColor=none;rotation=-90;" parent="Wueq8j8OSEsdgoLi7fvw-883" vertex="1">
                    <mxGeometry x="7.113821138211382" y="-6.452648475120386" width="14.573170731707313" height="29.843499197431782" as="geometry"/>
                </mxCell>
                <mxCell id="Wueq8j8OSEsdgoLi7fvw-886" value="" style="ellipse;fillColor=#ffffff;strokeColor=#000000;fontSize=20;shadow=0;sketch=0;rotation=-76;" parent="Wueq8j8OSEsdgoLi7fvw-883" vertex="1">
                    <mxGeometry x="3.638211382113821" y="6.786035313001605" width="19.43089430894308" height="19.895666131621184" as="geometry"/>
                </mxCell>
                <mxCell id="Wueq8j8OSEsdgoLi7fvw-878" value="" style="endArrow=none;html=1;rounded=0;fontSize=14;entryX=0.545;entryY=0.998;entryDx=0;entryDy=0;entryPerimeter=0;exitX=1;exitY=0.5;exitDx=0;exitDy=0;" parent="5" target="301" edge="1">
                    <mxGeometry width="50" height="50" relative="1" as="geometry">
                        <mxPoint x="855.6430623190384" y="211.2317204077916" as="sourcePoint"/>
                        <mxPoint x="855.2235772357723" y="192.80513643659708" as="targetPoint"/>
                    </mxGeometry>
                </mxCell>
                <mxCell id="Wueq8j8OSEsdgoLi7fvw-887" value="&lt;font style=&quot;font-size: 15px;&quot;&gt;ChargeNotificationInt&lt;/font&gt;" style="text;html=1;strokeColor=none;fillColor=none;align=center;verticalAlign=middle;whiteSpace=wrap;rounded=0;fontSize=15;" parent="5" vertex="1">
                    <mxGeometry x="691.2243089430893" y="204.46945425361153" width="95.20325203252033" height="32.263242375601926" as="geometry"/>
                </mxCell>
                <mxCell id="Wueq8j8OSEsdgoLi7fvw-888" value="" style="group;rotation=0;" parent="5" connectable="0" vertex="1">
                    <mxGeometry x="691.0569105691056" y="101.09149277688603" width="38.50609756097562" height="43.017656500802566" as="geometry"/>
                </mxCell>
                <mxCell id="Wueq8j8OSEsdgoLi7fvw-889" value="" style="ellipse;fillColor=#ffffff;strokeColor=#000000;fontSize=20;rotation=14;" parent="Wueq8j8OSEsdgoLi7fvw-888" vertex="1">
                    <mxGeometry y="3.226324237560193" width="35.005543237250556" height="35.84804708400213" as="geometry"/>
                </mxCell>
                <mxCell id="Wueq8j8OSEsdgoLi7fvw-890" value="" style="rounded=0;whiteSpace=wrap;html=1;fontSize=20;strokeWidth=0;strokeColor=none;rotation=0;" parent="Wueq8j8OSEsdgoLi7fvw-888" vertex="1">
                    <mxGeometry x="17.27642276422764" y="2.1508828250401284" width="21.003325942350337" height="43.017656500802566" as="geometry"/>
                </mxCell>
                <mxCell id="Wueq8j8OSEsdgoLi7fvw-891" value="" style="ellipse;fillColor=#ffffff;strokeColor=#000000;fontSize=20;shadow=0;sketch=0;rotation=14;" parent="Wueq8j8OSEsdgoLi7fvw-888" vertex="1">
                    <mxGeometry x="3.048780487804877" y="6.452648475120386" width="28.004434589800443" height="28.67843766720171" as="geometry"/>
                </mxCell>
                <mxCell id="Wueq8j8OSEsdgoLi7fvw-892" value="" style="endArrow=none;html=1;rounded=0;fontSize=13;exitX=0.995;exitY=0.388;exitDx=0;exitDy=0;exitPerimeter=0;entryX=0;entryY=0.218;entryDx=0;entryDy=0;entryPerimeter=0;" parent="5" source="Wueq8j8OSEsdgoLi7fvw-891" edge="1">
                    <mxGeometry width="50" height="50" relative="1" as="geometry">
                        <mxPoint x="722.1554324023925" y="122.35309651405396" as="sourcePoint"/>
                        <mxPoint x="756.0975609756097" y="122.1916532905297" as="targetPoint"/>
                    </mxGeometry>
                </mxCell>
                <mxCell id="Wueq8j8OSEsdgoLi7fvw-893" value="&lt;font style=&quot;font-size: 14px&quot;&gt;NotificationPreferencesInt&lt;/font&gt;" style="text;html=1;strokeColor=none;fillColor=none;align=center;verticalAlign=middle;whiteSpace=wrap;rounded=0;fontSize=15;" parent="5" vertex="1">
                    <mxGeometry x="691.2267479674795" y="68.82648475120385" width="95.20325203252033" height="32.263242375601926" as="geometry"/>
                </mxCell>
                <mxCell id="Wueq8j8OSEsdgoLi7fvw-895" value="" style="endArrow=none;html=1;rounded=0;fontSize=13;exitX=1;exitY=0.25;exitDx=0;exitDy=0;entryX=0.021;entryY=0.617;entryDx=0;entryDy=0;entryPerimeter=0;edgeStyle=orthogonalEdgeStyle;" parent="5" edge="1">
                    <mxGeometry width="50" height="50" relative="1" as="geometry">
                        <mxPoint x="264.2276422764227" y="125.28892455858748" as="sourcePoint"/>
                        <mxPoint x="691.3312612158344" y="122.01878734630223" as="targetPoint"/>
                        <Array as="points">
                            <mxPoint x="264" y="122"/>
                        </Array>
                    </mxGeometry>
                </mxCell>
                <mxCell id="gfm1DG6U235ydkwjRBoz-812" value="" style="endArrow=none;html=1;rounded=0;exitX=-0.085;exitY=0.533;exitDx=0;exitDy=0;exitPerimeter=0;entryX=1.006;entryY=0.533;entryDx=0;entryDy=0;entryPerimeter=0;edgeStyle=orthogonalEdgeStyle;" parent="5" source="803" target="803" edge="1">
                    <mxGeometry width="50" height="50" relative="1" as="geometry">
                        <mxPoint x="482.7235772357724" y="494.7" as="sourcePoint"/>
                        <mxPoint x="533.5365853658537" y="444.7" as="targetPoint"/>
                        <Array as="points">
                            <mxPoint x="497.9674796747968" y="463"/>
                            <mxPoint x="497.9674796747968" y="463"/>
                        </Array>
                    </mxGeometry>
                </mxCell>
                <mxCell id="gfm1DG6U235ydkwjRBoz-813" value="eMSPtoCPMSConnector" style="html=1;dropTarget=0;fontSize=20;fontStyle=1" parent="5" vertex="1">
                    <mxGeometry x="268.63821138211387" y="636.17" width="242.37804878048783" height="96.79" as="geometry"/>
                </mxCell>
                <mxCell id="gfm1DG6U235ydkwjRBoz-814" value="" style="shape=module;jettyWidth=8;jettyHeight=4;fontSize=20;fillColor=#d5e8d4;strokeColor=#82b366;" parent="gfm1DG6U235ydkwjRBoz-813" vertex="1">
                    <mxGeometry x="1" width="20" height="20" relative="1" as="geometry">
                        <mxPoint x="-27" y="7" as="offset"/>
                    </mxGeometry>
                </mxCell>
                <mxCell id="gfm1DG6U235ydkwjRBoz-837" value="" style="group;rotation=-90;" parent="5" connectable="0" vertex="1">
                    <mxGeometry x="165.1321138211382" y="680" width="38.63821138211383" height="43.26" as="geometry"/>
                </mxCell>
                <mxCell id="gfm1DG6U235ydkwjRBoz-815" value="" style="ellipse;fillColor=#ffffff;strokeColor=#000000;fontSize=20;rotation=-90;" parent="gfm1DG6U235ydkwjRBoz-837" vertex="1">
                    <mxGeometry x="-3.048780487804878" y="5" width="32.76339561641231" height="31.68998608160569" as="geometry"/>
                </mxCell>
                <mxCell id="gfm1DG6U235ydkwjRBoz-816" value="" style="rounded=0;whiteSpace=wrap;html=1;fontSize=20;strokeWidth=0;strokeColor=none;rotation=-180;" parent="gfm1DG6U235ydkwjRBoz-837" vertex="1">
                    <mxGeometry x="6.097560975609756" y="3" width="34.883865176151765" height="38.02798329792683" as="geometry"/>
                </mxCell>
                <mxCell id="gfm1DG6U235ydkwjRBoz-817" value="" style="ellipse;fillColor=#ffffff;strokeColor=#000000;fontSize=20;rotation=-270;" parent="gfm1DG6U235ydkwjRBoz-837" vertex="1">
                    <mxGeometry y="8" width="26.21071649312985" height="25.35198886528455" as="geometry"/>
                </mxCell>
                <mxCell id="gfm1DG6U235ydkwjRBoz-818" value="" style="endArrow=none;html=1;rounded=0;edgeStyle=orthogonalEdgeStyle;" parent="gfm1DG6U235ydkwjRBoz-837" source="gfm1DG6U235ydkwjRBoz-813" target="gfm1DG6U235ydkwjRBoz-817" edge="1">
                    <mxGeometry width="50" height="50" relative="1" as="geometry">
                        <mxPoint x="71.13821138211382" y="28" as="sourcePoint"/>
                        <mxPoint x="39.63414634146342" y="-4" as="targetPoint"/>
                        <Array as="points">
                            <mxPoint x="34.552845528455286" y="20"/>
                        </Array>
                    </mxGeometry>
                </mxCell>
                <mxCell id="811" value="" style="group;rotation=-90;" parent="5" connectable="0" vertex="1">
                    <mxGeometry x="165.1321138211382" y="630" width="120" height="43.26" as="geometry"/>
                </mxCell>
                <mxCell id="812" value="" style="ellipse;fillColor=#ffffff;strokeColor=#000000;fontSize=20;rotation=-90;" parent="811" vertex="1">
                    <mxGeometry x="-3.048780487804878" y="5" width="32.76339561641231" height="31.68998608160569" as="geometry"/>
                </mxCell>
                <mxCell id="813" value="" style="rounded=0;whiteSpace=wrap;html=1;fontSize=20;strokeWidth=0;strokeColor=none;rotation=-180;" parent="811" vertex="1">
                    <mxGeometry x="6.097560975609756" y="3" width="34.883865176151765" height="38.02798329792683" as="geometry"/>
                </mxCell>
                <mxCell id="814" value="" style="ellipse;fillColor=#ffffff;strokeColor=#000000;fontSize=20;rotation=-270;" parent="811" vertex="1">
                    <mxGeometry y="8" width="26.21071649312985" height="25.35198886528455" as="geometry"/>
                </mxCell>
                <mxCell id="815" value="" style="endArrow=none;html=1;rounded=0;edgeStyle=orthogonalEdgeStyle;" parent="5" target="814" edge="1">
                    <mxGeometry width="50" height="50" relative="1" as="geometry">
                        <mxPoint x="268.2926829268293" y="651" as="sourcePoint"/>
                        <mxPoint x="204.7662601626016" y="626" as="targetPoint"/>
                        <Array as="points">
                            <mxPoint x="268.2926829268293" y="651"/>
                            <mxPoint x="233.739837398374" y="651"/>
                        </Array>
                    </mxGeometry>
                </mxCell>
                <mxCell id="825" value="" style="endArrow=none;html=1;rounded=0;entryX=0.5;entryY=1;entryDx=0;entryDy=0;edgeStyle=orthogonalEdgeStyle;" parent="5" target="336" edge="1">
                    <mxGeometry width="50" height="50" relative="1" as="geometry">
                        <mxPoint y="610" as="sourcePoint"/>
                        <mxPoint x="497.9674796747968" y="490" as="targetPoint"/>
                        <Array as="points">
                            <mxPoint x="662.6016260162602" y="610"/>
                        </Array>
                    </mxGeometry>
                </mxCell>
                <mxCell id="848" value="" style="group;rotation=90;" parent="5" connectable="0" vertex="1">
                    <mxGeometry x="38.61788617886173" y="598.9959390048155" width="21.341463414634145" height="21.508828250401283" as="geometry"/>
                </mxCell>
                <mxCell id="849" value="" style="ellipse;whiteSpace=wrap;html=1;aspect=fixed;rounded=1;fontSize=20;strokeColor=#000000;strokeWidth=1;rotation=90;" parent="848" vertex="1">
                    <mxGeometry x="1.016260162601626" width="19.999999999999996" height="19.999999999999996" as="geometry"/>
                </mxCell>
                <mxCell id="850" value="" style="rounded=0;whiteSpace=wrap;html=1;fontSize=20;strokeColor=#FFFFFF;strokeWidth=1;rotation=90;" parent="848" vertex="1">
                    <mxGeometry x="3.1300813008130084" y="-10" width="14.329268292682928" height="26.25" as="geometry"/>
                </mxCell>
                <mxCell id="845" value="" style="group;rotation=90;" parent="5" connectable="0" vertex="1">
                    <mxGeometry x="9.146341463414577" y="599.9959390048155" width="21.341463414634145" height="21.508828250401283" as="geometry"/>
                </mxCell>
                <mxCell id="846" value="" style="ellipse;whiteSpace=wrap;html=1;aspect=fixed;rounded=1;fontSize=20;strokeColor=#000000;strokeWidth=1;rotation=90;" parent="845" vertex="1">
                    <mxGeometry x="1.016260162601626" y="-1" width="19.999999999999996" height="19.999999999999996" as="geometry"/>
                </mxCell>
                <mxCell id="847" value="" style="rounded=0;whiteSpace=wrap;html=1;fontSize=20;strokeColor=#FFFFFF;strokeWidth=1;rotation=90;" parent="845" vertex="1">
                    <mxGeometry x="6.097560975609756" y="-10" width="10.162601626016261" height="27.5" as="geometry"/>
                </mxCell>
                <mxCell id="810" value="" style="endArrow=none;html=1;entryX=0;entryY=0.75;entryDx=0;entryDy=0;edgeStyle=orthogonalEdgeStyle;rounded=0;exitX=0.5;exitY=0;exitDx=0;exitDy=0;" parent="5" source="gfm1DG6U235ydkwjRBoz-815" target="201" edge="1">
                    <mxGeometry width="50" height="50" relative="1" as="geometry">
                        <mxPoint x="376.01626016260167" y="580" as="sourcePoint"/>
                        <mxPoint x="355.69105691056916" y="340" as="targetPoint"/>
                        <Array as="points">
                            <mxPoint x="20.325203252032523" y="701"/>
                            <mxPoint x="20.325203252032523" y="288"/>
                        </Array>
                    </mxGeometry>
                </mxCell>
                <mxCell id="821" value="" style="group;fontSize=20;" parent="5" connectable="0" vertex="1">
                    <mxGeometry x="9.146341463414577" y="494.0459390048154" width="21.341463414634145" height="21.508828250401283" as="geometry"/>
                </mxCell>
                <mxCell id="844" value="" style="group" parent="821" connectable="0" vertex="1">
                    <mxGeometry width="21.341463414634145" height="21.508828250401283" as="geometry"/>
                </mxCell>
                <mxCell id="822" value="" style="ellipse;whiteSpace=wrap;html=1;aspect=fixed;rounded=1;fontSize=20;strokeColor=#000000;strokeWidth=1;" parent="844" vertex="1">
                    <mxGeometry x="1.0162601626016259" width="19.999999999999996" height="19.999999999999996" as="geometry"/>
                </mxCell>
                <mxCell id="823" value="" style="rounded=0;whiteSpace=wrap;html=1;fontSize=20;strokeColor=#FFFFFF;strokeWidth=1;" parent="844" vertex="1">
                    <mxGeometry width="10.16260162601626" height="21.508828250401283" as="geometry"/>
                </mxCell>
                <mxCell id="505" value="" style="endArrow=none;html=1;rounded=0;sketch=0;fontSize=20;endSize=6;strokeWidth=1;edgeStyle=elbowEdgeStyle;startArrow=none;" parent="5" edge="1">
                    <mxGeometry width="50" height="50" relative="1" as="geometry">
                        <mxPoint y="504.3820224719101" as="sourcePoint"/>
                        <mxPoint x="81.30081300813008" y="504.3820224719101" as="targetPoint"/>
                        <Array as="points">
                            <mxPoint x="71.1890243902439" y="503.85505617977526"/>
                            <mxPoint x="61.026422764227654" y="503.85505617977526"/>
                        </Array>
                    </mxGeometry>
                </mxCell>
                <mxCell id="818" value="" style="group;fontSize=20;" parent="5" connectable="0" vertex="1">
                    <mxGeometry x="9.146341463414577" y="378.01593900481544" width="21.341463414634145" height="21.508828250401283" as="geometry"/>
                </mxCell>
                <mxCell id="819" value="" style="ellipse;whiteSpace=wrap;html=1;aspect=fixed;rounded=1;fontSize=20;strokeColor=#000000;strokeWidth=1;" parent="818" vertex="1">
                    <mxGeometry x="1.0162601626016259" width="19.999999999999996" height="19.999999999999996" as="geometry"/>
                </mxCell>
                <mxCell id="820" value="" style="rounded=0;whiteSpace=wrap;html=1;fontSize=20;strokeColor=#FFFFFF;strokeWidth=1;" parent="818" vertex="1">
                    <mxGeometry width="10.16260162601626" height="21.508828250401283" as="geometry"/>
                </mxCell>
                <mxCell id="504" value="" style="endArrow=none;html=1;rounded=0;sketch=0;fontSize=20;endSize=6;strokeWidth=1;exitX=1;exitY=0.5;exitDx=0;exitDy=0;entryX=0.001;entryY=0.461;entryDx=0;entryDy=0;entryPerimeter=0;edgeStyle=elbowEdgeStyle;" parent="5" edge="1">
                    <mxGeometry width="50" height="50" relative="1" as="geometry">
                        <mxPoint x="-2.0325203252032518" y="387.69662921348316" as="sourcePoint"/>
                        <mxPoint x="81.5345528455283" y="389.63242375601925" as="targetPoint"/>
                        <Array as="points">
                            <mxPoint x="81.35162601626017" y="398.784430176565"/>
                            <mxPoint x="71.1890243902439" y="398.784430176565"/>
                            <mxPoint x="61.026422764227654" y="398.784430176565"/>
                        </Array>
                    </mxGeometry>
                </mxCell>
                <mxCell id="853" value="" style="endArrow=none;html=1;rounded=0;entryX=0.5;entryY=0;entryDx=0;entryDy=0;exitX=0;exitY=0.75;exitDx=0;exitDy=0;edgeStyle=orthogonalEdgeStyle;" parent="5" source="205" target="812" edge="1">
                    <mxGeometry width="50" height="50" relative="1" as="geometry">
                        <mxPoint x="101.62601626016261" y="680" as="sourcePoint"/>
                        <mxPoint x="152.43902439024393" y="630" as="targetPoint"/>
                        <Array as="points">
                            <mxPoint x="50.81300813008131" y="524"/>
                            <mxPoint x="50.81300813008131" y="651"/>
                        </Array>
                    </mxGeometry>
                </mxCell>
                <mxCell id="855" value="" style="endArrow=none;dashed=1;html=1;rounded=0;fontSize=20;endSize=6;strokeWidth=1;exitX=1.002;exitY=0.35;exitDx=0;exitDy=0;exitPerimeter=0;edgeStyle=orthogonalEdgeStyle;" parent="5" edge="1">
                    <mxGeometry width="50" height="50" relative="1" as="geometry">
                        <mxPoint x="263.57723577235765" y="358.31179775280884" as="sourcePoint"/>
                        <mxPoint x="560" y="358" as="targetPoint"/>
                        <Array as="points">
                            <mxPoint x="560" y="358"/>
                        </Array>
                    </mxGeometry>
                </mxCell>
                <mxCell id="862" value="" style="group;fontSize=20;" parent="5" connectable="0" vertex="1">
                    <mxGeometry x="547.4355284552845" y="96.78972712680576" width="21.341463414634145" height="21.508828250401283" as="geometry"/>
                </mxCell>
                <mxCell id="864" value="" style="rounded=0;whiteSpace=wrap;html=1;fontSize=20;strokeColor=#FFFFFF;strokeWidth=1;" parent="862" vertex="1">
                    <mxGeometry x="1.0162601626016259" width="10.16260162601626" height="21.508828250401283" as="geometry"/>
                </mxCell>
                <mxCell id="338" value="" style="endArrow=none;dashed=1;html=1;rounded=0;fontSize=20;endSize=6;strokeWidth=1;entryX=0.5;entryY=1;entryDx=0;entryDy=0;exitX=0.155;exitY=0.005;exitDx=0;exitDy=0;edgeStyle=orthogonalEdgeStyle;exitPerimeter=0;" parent="5" target="327" edge="1">
                    <mxGeometry width="50" height="50" relative="1" as="geometry">
                        <mxPoint x="653.4918699186987" y="398.3972712680579" as="sourcePoint"/>
                        <mxPoint x="685.3780487804879" y="50.04735152487956" as="targetPoint"/>
                        <Array as="points">
                            <mxPoint x="654" y="50"/>
                        </Array>
                    </mxGeometry>
                </mxCell>
                <mxCell id="867" value="&lt;font style=&quot;font-size: 15px&quot;&gt;EVCPDetailsInt&lt;/font&gt;" style="text;html=1;strokeColor=none;fillColor=none;align=center;verticalAlign=middle;whiteSpace=wrap;rounded=0;fontSize=15;" parent="5" vertex="1">
                    <mxGeometry x="93.8" y="717.74" width="174.84" height="32.26" as="geometry"/>
                </mxCell>
                <mxCell id="865" value="&lt;font style=&quot;font-size: 15px&quot;&gt;BookingInt&lt;br&gt;&lt;br&gt;&lt;/font&gt;" style="text;html=1;strokeColor=none;fillColor=none;align=center;verticalAlign=middle;whiteSpace=wrap;rounded=0;fontSize=15;" parent="5" vertex="1">
                    <mxGeometry x="97.7" y="620.5" width="150.13" height="19.5" as="geometry"/>
                </mxCell>
                <mxCell id="871" value="" style="endArrow=none;html=1;entryX=0;entryY=0.5;entryDx=0;entryDy=0;exitX=0.545;exitY=-0.002;exitDx=0;exitDy=0;exitPerimeter=0;" edge="1" parent="5" source="336" target="343">
                    <mxGeometry width="50" height="50" relative="1" as="geometry">
                        <mxPoint x="620" y="400" as="sourcePoint"/>
                        <mxPoint x="670" y="350" as="targetPoint"/>
                    </mxGeometry>
                </mxCell>
                <mxCell id="807" value="" style="endArrow=none;html=1;rounded=0;exitX=1;exitY=0.5;exitDx=0;exitDy=0;" parent="1" source="203" edge="1">
                    <mxGeometry width="50" height="50" relative="1" as="geometry">
                        <mxPoint x="32.22764227642256" y="-168.21829855537726" as="sourcePoint"/>
                        <mxPoint x="278" y="-168" as="targetPoint"/>
                    </mxGeometry>
                </mxCell>
                <mxCell id="Wueq8j8OSEsdgoLi7fvw-855" value="" style="group" parent="1" vertex="1" connectable="0">
                    <mxGeometry x="-461.00000000000006" y="-757" width="193.68" height="64" as="geometry"/>
                </mxCell>
                <mxCell id="279" value="" style="endArrow=none;html=1;fontSize=20;strokeWidth=1;endSize=6;exitX=0.5;exitY=1;exitDx=0;exitDy=0;entryX=0.469;entryY=0.01;entryDx=0;entryDy=0;entryPerimeter=0;" parent="1" source="334" target="273" edge="1">
                    <mxGeometry width="50" height="50" relative="1" as="geometry">
                        <mxPoint x="449.42999999999984" y="228.0004333868378" as="sourcePoint"/>
                        <mxPoint x="450" y="115" as="targetPoint"/>
                    </mxGeometry>
                </mxCell>
                <mxCell id="334" value="" style="whiteSpace=wrap;html=1;aspect=fixed;rounded=0;fontSize=20;fillColor=#FFFFFF;" parent="1" vertex="1">
                    <mxGeometry x="438.92999999999995" y="190.00043338683793" width="22.999999999999996" height="22.999999999999996" as="geometry"/>
                </mxCell>
                <mxCell id="gfm1DG6U235ydkwjRBoz-838" value="" style="group" parent="1" vertex="1" connectable="0">
                    <mxGeometry x="-520" y="-77" width="303" height="90" as="geometry"/>
                </mxCell>
                <mxCell id="238" value="" style="group;fontStyle=0;fontSize=20;" parent="gfm1DG6U235ydkwjRBoz-838" vertex="1" connectable="0">
                    <mxGeometry width="303" height="90" as="geometry"/>
                </mxCell>
                <mxCell id="239" value="" style="ellipse;fillColor=#ffffff;strokeColor=#000000;fontSize=20;fontStyle=4" parent="238" vertex="1">
                    <mxGeometry x="122.10526315789474" y="5" width="50.877192982456144" height="50" as="geometry"/>
                </mxCell>
                <mxCell id="240" value="" style="rounded=0;whiteSpace=wrap;html=1;fontSize=20;strokeWidth=0;strokeColor=none;fontStyle=4;fillColor=default;" parent="238" vertex="1">
                    <mxGeometry x="147.54385964912282" width="30.526315789473685" height="60" as="geometry"/>
                </mxCell>
                <mxCell id="241" value="" style="ellipse;fillColor=#ffffff;strokeColor=#000000;fontSize=20;fontStyle=0" parent="238" vertex="1">
                    <mxGeometry x="127.19298245614036" y="10" width="40.70175438596492" height="40" as="geometry"/>
                </mxCell>
                <mxCell id="242" value="" style="endArrow=none;html=1;fontSize=20;strokeWidth=1;endSize=6;rounded=0;fontStyle=0;edgeStyle=orthogonalEdgeStyle;" parent="238" edge="1">
                    <mxGeometry width="50" height="50" relative="1" as="geometry">
                        <mxPoint x="10" y="-93" as="sourcePoint"/>
                        <mxPoint x="122.10526315789474" y="30" as="targetPoint"/>
                        <Array as="points">
                            <mxPoint x="10" y="-80"/>
                            <mxPoint x="10" y="30"/>
                        </Array>
                    </mxGeometry>
                </mxCell>
                <mxCell id="244" value="Reservation&amp;nbsp;&lt;br style=&quot;font-size: 18px;&quot;&gt;Interface" style="text;html=1;strokeColor=none;fillColor=none;align=center;verticalAlign=middle;whiteSpace=wrap;rounded=0;fontSize=18;fontStyle=0" parent="238" vertex="1">
                    <mxGeometry x="76.31578947368422" y="70" width="142.4561403508772" height="30" as="geometry"/>
                </mxCell>
                <mxCell id="809" value="" style="endArrow=none;html=1;rounded=0;sketch=0;fontSize=20;endSize=6;strokeWidth=1;startArrow=none;exitX=1;exitY=0.5;exitDx=0;exitDy=0;" parent="gfm1DG6U235ydkwjRBoz-838" edge="1">
                    <mxGeometry width="50" height="50" relative="1" as="geometry">
                        <mxPoint x="167.89473684210532" y="30" as="sourcePoint"/>
                        <mxPoint x="267" y="29.551986676183787" as="targetPoint"/>
                    </mxGeometry>
                </mxCell>
                <mxCell id="gfm1DG6U235ydkwjRBoz-820" value="CPMS" style="html=1;dropTarget=0;fontSize=20;fontStyle=1" parent="1" vertex="1">
                    <mxGeometry x="-180" y="278.64" width="160" height="80" as="geometry"/>
                </mxCell>
                <mxCell id="gfm1DG6U235ydkwjRBoz-821" value="" style="shape=module;jettyWidth=8;jettyHeight=4;fontSize=20;fillColor=#fff2cc;strokeColor=#d6b656;" parent="gfm1DG6U235ydkwjRBoz-820" vertex="1">
                    <mxGeometry x="1" width="20" height="20" relative="1" as="geometry">
                        <mxPoint x="-27" y="7" as="offset"/>
                    </mxGeometry>
                </mxCell>
                <mxCell id="gfm1DG6U235ydkwjRBoz-834" value="" style="group" parent="1" vertex="1" connectable="0">
                    <mxGeometry x="90" y="290" width="51.02" height="57.28" as="geometry"/>
                </mxCell>
                <mxCell id="gfm1DG6U235ydkwjRBoz-823" value="" style="ellipse;fillColor=#ffffff;strokeColor=#000000;fontSize=20;fontStyle=4" parent="gfm1DG6U235ydkwjRBoz-834" vertex="1">
                    <mxGeometry y="4.773333333333335" width="46.38181818181817" height="47.73333333333334" as="geometry"/>
                </mxCell>
                <mxCell id="gfm1DG6U235ydkwjRBoz-824" value="" style="rounded=0;whiteSpace=wrap;html=1;fontSize=20;strokeWidth=0;strokeColor=none;fontStyle=4;rotation=-180;" parent="gfm1DG6U235ydkwjRBoz-834" vertex="1">
                    <mxGeometry x="-3.229113924050627" width="27.829090909090905" height="57.28" as="geometry"/>
                </mxCell>
                <mxCell id="gfm1DG6U235ydkwjRBoz-825" value="" style="ellipse;fillColor=#ffffff;strokeColor=#000000;fontSize=20;fontStyle=4" parent="gfm1DG6U235ydkwjRBoz-834" vertex="1">
                    <mxGeometry x="3.726539184952978" y="9.54666666666667" width="37.10545454545454" height="38.18666666666668" as="geometry"/>
                </mxCell>
                <mxCell id="gfm1DG6U235ydkwjRBoz-835" value="" style="endArrow=none;html=1;rounded=0;exitX=1;exitY=0.5;exitDx=0;exitDy=0;entryX=0.5;entryY=1;entryDx=0;entryDy=0;edgeStyle=orthogonalEdgeStyle;" parent="1" source="gfm1DG6U235ydkwjRBoz-823" target="gfm1DG6U235ydkwjRBoz-813" edge="1">
                    <mxGeometry width="50" height="50" relative="1" as="geometry">
                        <mxPoint y="180" as="sourcePoint"/>
                        <mxPoint x="50" y="130" as="targetPoint"/>
                    </mxGeometry>
                </mxCell>
                <mxCell id="gfm1DG6U235ydkwjRBoz-836" value="" style="endArrow=none;html=1;rounded=0;exitX=1;exitY=0.5;exitDx=0;exitDy=0;entryX=0;entryY=0.5;entryDx=0;entryDy=0;" parent="1" source="gfm1DG6U235ydkwjRBoz-820" target="gfm1DG6U235ydkwjRBoz-825" edge="1">
                    <mxGeometry width="50" height="50" relative="1" as="geometry">
                        <mxPoint x="-9.734567398106037" y="144.56500000000005" as="sourcePoint"/>
                        <mxPoint x="28.340000000000146" y="144.56500000000005" as="targetPoint"/>
                    </mxGeometry>
                </mxCell>
                <mxCell id="826" value="" style="whiteSpace=wrap;html=1;aspect=fixed;rounded=0;fontSize=20;fillColor=#FFFFFF;" parent="1" vertex="1">
                    <mxGeometry x="-253" y="50.00216693418942" width="22.999999999999996" height="22.999999999999996" as="geometry"/>
                </mxCell>
                <mxCell id="830" value="" style="group" parent="1" vertex="1" connectable="0">
                    <mxGeometry x="-520" y="30" width="303" height="90" as="geometry"/>
                </mxCell>
                <mxCell id="831" value="" style="group;fontStyle=0;fontSize=20;" parent="830" vertex="1" connectable="0">
                    <mxGeometry width="303" height="90" as="geometry"/>
                </mxCell>
                <mxCell id="832" value="" style="ellipse;fillColor=#ffffff;strokeColor=#000000;fontSize=20;fontStyle=4" parent="831" vertex="1">
                    <mxGeometry x="122.10526315789474" y="5" width="50.877192982456144" height="50" as="geometry"/>
                </mxCell>
                <mxCell id="833" value="" style="rounded=0;whiteSpace=wrap;html=1;fontSize=20;strokeWidth=0;strokeColor=none;fontStyle=4;fillColor=default;" parent="831" vertex="1">
                    <mxGeometry x="147.54385964912282" width="30.526315789473685" height="60" as="geometry"/>
                </mxCell>
                <mxCell id="834" value="" style="ellipse;fillColor=#ffffff;strokeColor=#000000;fontSize=20;fontStyle=0" parent="831" vertex="1">
                    <mxGeometry x="127.19298245614036" y="10" width="40.70175438596492" height="40" as="geometry"/>
                </mxCell>
                <mxCell id="835" value="" style="endArrow=none;html=1;fontSize=20;strokeWidth=1;endSize=6;rounded=0;fontStyle=0;edgeStyle=orthogonalEdgeStyle;" parent="831" edge="1">
                    <mxGeometry width="50" height="50" relative="1" as="geometry">
                        <mxPoint x="10" y="-93" as="sourcePoint"/>
                        <mxPoint x="122.10526315789474" y="30" as="targetPoint"/>
                        <Array as="points">
                            <mxPoint x="10" y="-80"/>
                            <mxPoint x="10" y="30"/>
                        </Array>
                    </mxGeometry>
                </mxCell>
                <mxCell id="836" value="Suggestion&lt;br&gt;Interface" style="text;html=1;strokeColor=none;fillColor=none;align=center;verticalAlign=middle;whiteSpace=wrap;rounded=0;fontSize=18;fontStyle=0" parent="831" vertex="1">
                    <mxGeometry x="76.31578947368422" y="70" width="142.4561403508772" height="30" as="geometry"/>
                </mxCell>
                <mxCell id="837" value="" style="endArrow=none;html=1;rounded=0;sketch=0;fontSize=20;endSize=6;strokeWidth=1;startArrow=none;exitX=1;exitY=0.5;exitDx=0;exitDy=0;" parent="830" edge="1">
                    <mxGeometry width="50" height="50" relative="1" as="geometry">
                        <mxPoint x="167.89473684210532" y="30" as="sourcePoint"/>
                        <mxPoint x="267" y="29.551986676183787" as="targetPoint"/>
                    </mxGeometry>
                </mxCell>
                <mxCell id="869" value="&lt;font style=&quot;font-size: 19px&quot;&gt;Charge&lt;br&gt;Point&lt;br&gt;Interface&lt;/font&gt;" style="text;html=1;strokeColor=none;fillColor=none;align=center;verticalAlign=middle;whiteSpace=wrap;rounded=0;fontSize=19;" parent="1" vertex="1">
                    <mxGeometry x="67.9043089430893" y="369.99945425361153" width="95.20325203252033" height="32.263242375601926" as="geometry"/>
                </mxCell>
                <mxCell id="349" value="" style="endArrow=none;dashed=1;html=1;rounded=0;fontSize=20;endSize=6;strokeWidth=1;exitX=0.25;exitY=1;exitDx=0;exitDy=0;edgeStyle=orthogonalEdgeStyle;" parent="1" edge="1">
                    <mxGeometry width="50" height="50" relative="1" as="geometry">
                        <mxPoint x="-102.96747967479723" y="-1.524879614767542" as="sourcePoint"/>
                        <mxPoint x="-241" y="131" as="targetPoint"/>
                        <Array as="points">
                            <mxPoint x="-130" y="-1"/>
                            <mxPoint x="-130" y="131"/>
                        </Array>
                    </mxGeometry>
                </mxCell>
                <mxCell id="329" value="" style="whiteSpace=wrap;html=1;aspect=fixed;rounded=0;fontSize=20;fillColor=#FFFFFF;" parent="1" vertex="1">
                    <mxGeometry x="-253.00073170731707" y="119.9973515248796" width="22.999999999999996" height="22.999999999999996" as="geometry"/>
                </mxCell>
                <mxCell id="211" value="Payment&lt;br style=&quot;font-size: 18px;&quot;&gt;Gateway" style="text;html=1;strokeColor=none;fillColor=none;align=center;verticalAlign=middle;whiteSpace=wrap;rounded=0;fontSize=18;" parent="1" vertex="1">
                    <mxGeometry x="-490" y="245" width="60" height="30" as="geometry"/>
                </mxCell>
            </root>
        </mxGraphModel>
    </diagram>
</mxfile>